<svg preserveAspectRatio="none" width="100%" height="100%" overflow="visible" style="display: block;" viewBox="0 0 24 24" fill="none" xmlns="http://www.w3.org/2000/svg">
<g id="SVG">
<path id="h116" d="M19.875 3.75H4.125C3.40045 3.75078 2.782 4.00733 2.26967 4.51967C1.75733 5.032 1.50078 5.65045 1.5 6.375V17.625C1.50078 18.3496 1.75733 18.968 2.26967 19.4803C2.782 19.9927 3.40045 20.2492 4.125 20.25H19.875C20.5996 20.2492 21.218 19.9927 21.7303 19.4803C22.2427 18.968 22.4992 18.3496 22.5 17.625V6.375C22.4992 5.65045 22.2427 5.032 21.7303 4.51967C21.218 4.00733 20.5996 3.75077 19.875 3.75ZM19.2103 8.09203L12.4603 13.342C12.3249 13.4473 12.1715 13.4999 12 13.4999C11.8285 13.4999 11.6751 13.4473 11.5397 13.342L4.78969 8.09203C4.62276 7.96598 4.52558 7.79927 4.49814 7.5919C4.4707 7.38454 4.52118 7.19829 4.64957 7.03316C4.77796 6.86803 4.94603 6.7732 5.15376 6.74869C5.36149 6.72417 5.54701 6.77726 5.71031 6.90797L12 11.7998L18.2897 6.90797C18.4533 6.7844 18.6368 6.73606 18.8401 6.76295C19.0433 6.78985 19.2079 6.88424 19.3338 7.04611C19.4596 7.20799 19.5105 7.39075 19.4865 7.59439C19.4625 7.79802 19.3704 7.96391 19.2103 8.09203Z" fill="var(--fill-0, white)"/>
</g>
</svg>
