<svg preserveAspectRatio="none" width="100%" height="100%" overflow="visible" style="display: block;" viewBox="0 0 16 16" fill="none" xmlns="http://www.w3.org/2000/svg">
<g id="SVG">
<circle id="h90" cx="8" cy="6" r="1" fill="var(--fill-0, #FE9213)"/>
<path id="h91" d="M8 1C5.24312 1 3 3.14531 3 5.78125C3 7.03656 3.57219 8.70594 4.70062 10.7431C5.60687 12.3787 6.65531 13.8578 7.20062 14.5938C7.39883 14.8642 7.6656 14.9995 8.00094 14.9995C8.33627 14.9995 8.60304 14.8642 8.80125 14.5938C9.34563 13.8578 10.395 12.3787 11.3013 10.7431C12.4278 8.70656 13 7.03719 13 5.78125C13 3.14531 10.7569 1 8 1ZM8 8C7.44772 8 6.97631 7.80474 6.58579 7.41421C6.19526 7.02369 6 6.55228 6 6C6 5.44772 6.19526 4.97631 6.58579 4.58579C6.97631 4.19526 7.44772 4 8 4C8.55228 4 9.02369 4.19526 9.41421 4.58579C9.80474 4.97631 10 5.44772 10 6C9.9994 6.55204 9.80392 7.02323 9.41357 7.41357C9.02323 7.80392 8.55204 7.9994 8 8Z" fill="var(--fill-0, #FE9213)"/>
</g>
</svg>
