<svg preserveAspectRatio="none" width="100%" height="100%" overflow="visible" style="display: block;" viewBox="0 0 16 16" fill="none" xmlns="http://www.w3.org/2000/svg">
<g id="SVG">
<path id="h43" d="M12.2157 15C11.6057 15 10.7488 14.7794 9.46568 14.0625C7.90537 13.1875 6.69849 12.3797 5.14662 10.8319C3.65037 9.33658 2.92224 8.36845 1.90318 6.51408C0.751931 4.42033 0.948181 3.32283 1.16756 2.85377C1.42881 2.29314 1.81443 1.95783 2.31287 1.62502C2.45442 1.53227 2.59994 1.44623 2.74943 1.3669C2.89891 1.28756 3.05172 1.21527 3.20787 1.15002C3.23912 1.13658 3.26818 1.12377 3.29412 1.1122C3.44881 1.04252 3.68318 0.937203 3.98006 1.0497C4.17818 1.12408 4.35506 1.27627 4.63193 1.5497C5.19974 2.1097 5.97568 3.35689 6.26193 3.96939C6.45412 4.3822 6.58131 4.6547 6.58162 4.96033C6.58162 5.31814 6.40162 5.59408 6.18318 5.89189C6.14224 5.94783 6.10162 6.00127 6.06224 6.05314C5.82443 6.36564 5.77224 6.45595 5.80662 6.6172C5.87631 6.94127 6.39599 7.90595 7.25006 8.75814C8.10412 9.61033 9.04099 10.0972 9.36631 10.1666C9.53443 10.2025 9.62662 10.1481 9.94912 9.90189C9.99537 9.86658 10.0429 9.83002 10.0926 9.79345C10.4257 9.54564 10.6888 9.37033 11.0382 9.37033H11.0401C11.3441 9.37033 11.6044 9.5022 12.0357 9.7197C12.5982 10.0035 13.8829 10.7694 14.4463 11.3378C14.7204 11.6141 14.8732 11.7903 14.9479 11.9881C15.0604 12.286 14.9544 12.5194 14.8854 12.6756C14.8738 12.7016 14.861 12.73 14.8476 12.7616C14.7818 12.9174 14.709 13.07 14.6292 13.2191C14.5494 13.3683 14.4629 13.5135 14.3697 13.6547C14.0376 14.1516 13.701 14.5363 13.1391 14.7978C12.9949 14.8661 12.8448 14.9172 12.6889 14.9514C12.533 14.9855 12.3753 15.0017 12.2157 15Z" fill="var(--fill-0, #FE9213)"/>
</g>
</svg>
