<svg preserveAspectRatio="none" width="100%" height="100%" overflow="visible" style="display: block;" viewBox="0 0 24 24" fill="none" xmlns="http://www.w3.org/2000/svg">
<g id="SVG">
<path id="h109" d="M18.3281 22.5C17.4131 22.5 16.1278 22.1691 14.2031 21.0938C11.8627 19.7812 10.0523 18.5695 7.72453 16.2478C5.48016 14.0048 4.38797 12.5527 2.85937 9.77109C1.1325 6.63047 1.42687 4.98422 1.75594 4.28062C2.14781 3.43969 2.72625 2.93672 3.47391 2.4375C3.68624 2.29838 3.90452 2.16932 4.12874 2.05032C4.35297 1.93132 4.58219 1.82288 4.81641 1.725C4.86328 1.70484 4.90688 1.68562 4.94578 1.66828C5.17781 1.56375 5.52937 1.40578 5.97469 1.57453C6.27187 1.68609 6.53719 1.91438 6.9525 2.32453C7.80422 3.16453 8.96813 5.03531 9.3975 5.95406C9.68578 6.57328 9.87656 6.98203 9.87703 7.44047C9.87703 7.97719 9.60703 8.39109 9.27938 8.83781C9.21797 8.92172 9.15703 9.00188 9.09797 9.07969C8.74125 9.54844 8.66297 9.68391 8.71453 9.92578C8.81906 10.4119 9.59859 11.8589 10.8797 13.1372C12.1608 14.4155 13.5661 15.1458 14.0541 15.2498C14.3063 15.3038 14.4445 15.2222 14.9283 14.8528C14.9977 14.7998 15.0689 14.745 15.1434 14.6902C15.6431 14.3184 16.0378 14.0555 16.5619 14.0555H16.5647C17.0208 14.0555 17.4112 14.2533 18.0581 14.5795C18.9019 15.0052 20.8289 16.1541 21.6741 17.0067C22.0852 17.4211 22.3144 17.6855 22.4264 17.9822C22.5952 18.4289 22.4362 18.7791 22.3327 19.0134C22.3153 19.0523 22.2961 19.095 22.2759 19.1423C22.1773 19.3761 22.0681 19.6049 21.9484 19.8287C21.8287 20.0524 21.699 20.2702 21.5592 20.482C21.0609 21.2273 20.5561 21.8044 19.7133 22.1967C19.4969 22.2991 19.2718 22.3758 19.0379 22.427C18.8041 22.4782 18.5675 22.5026 18.3281 22.5Z" fill="var(--fill-0, white)"/>
</g>
</svg>
