<svg preserveAspectRatio="none" width="100%" height="100%" overflow="visible" style="display: block;" viewBox="0 0 144 64" fill="none" xmlns="http://www.w3.org/2000/svg">
<g id="Group 1 (1)" clip-path="url(#clip0_489_38)">
<ellipse id="Ellipse 1" cx="20.9293" cy="25.9095" rx="20.9293" ry="25.9095" transform="matrix(0.814031 -0.580822 0.579685 0.814841 -8.92188 21.7759)" fill="var(--fill-0, #025CCD)"/>
<ellipse id="Ellipse 1_2" cx="17.4066" cy="21.4146" rx="17.4066" ry="21.4146" transform="matrix(0.849376 -0.527788 0.526663 0.850074 0.226562 19.9819)" fill="var(--fill-0, #FBFCFE)"/>
<ellipse id="Ellipse 1_3" cx="11.4341" cy="14.5078" rx="11.4341" ry="14.5078" transform="matrix(0.782775 -0.622305 0.621179 0.783669 8.15625 23.9136)" fill="var(--fill-0, #025CCD)"/>
<ellipse id="Ellipse 1_4" cx="9.01375" cy="11.9047" rx="9.01375" ry="11.9047" transform="matrix(0.782775 -0.622305 0.621179 0.783669 13.6484 22.9863)" fill="var(--fill-0, #FBFCFE)"/>
<path id="Vector 1" d="M51.9249 1.33433C52.0257 1.19143 51.8509 1.01661 51.7077 1.11718L33.1625 14.147C33.0654 14.2152 33.0771 14.3623 33.1837 14.4144L38.3545 16.94C38.4519 16.9877 38.4722 17.1175 38.394 17.1924L24.8308 30.2016C24.6973 30.3295 24.8587 30.542 25.0182 30.4482L50.0642 15.6972C50.1694 15.6352 50.1656 15.4817 50.0574 15.425C49.033 14.8892 45.1528 12.8594 44.321 12.4242C44.2374 12.3805 44.2115 12.2734 44.2659 12.1965L51.9249 1.33433Z" fill="var(--fill-0, #FE9213)"/>
<path id="Vector 1_2" d="M33.2969 14.3387C33.3083 14.3307 33.317 14.32 33.3231 14.3066C33.3286 14.2944 33.3308 14.2818 33.3298 14.2688C33.3287 14.2559 33.3245 14.2438 33.3172 14.2326C33.3091 14.2203 33.2988 14.2111 33.2863 14.205L38.457 16.7307C38.5161 16.7596 38.5646 16.8005 38.6027 16.8535C38.6387 16.9035 38.6614 16.9592 38.671 17.0204C38.6807 17.0815 38.676 17.1415 38.657 17.2003C38.637 17.2624 38.6033 17.3161 38.5559 17.3616L24.9927 30.3708C25.0068 30.3574 25.0142 30.3389 25.015 30.3153C25.0156 30.2967 25.0108 30.2807 25.0008 30.2673C24.9907 30.2541 24.9766 30.2454 24.9584 30.2409C24.9357 30.2354 24.9159 30.2374 24.899 30.2474L49.945 15.4965C49.9327 15.5037 49.9229 15.5141 49.9158 15.5274C49.9093 15.5395 49.9062 15.5522 49.9066 15.5655C49.9069 15.5788 49.9106 15.5913 49.9176 15.6031C49.9254 15.6161 49.9358 15.6259 49.9485 15.6326L47.1258 14.1559L44.2121 12.6318C44.1612 12.6051 44.1182 12.5691 44.0834 12.5237C44.05 12.4802 44.027 12.4317 44.0141 12.3784C44.001 12.3249 43.9994 12.2713 44.0092 12.2174C44.0194 12.1611 44.0411 12.1095 44.0741 12.0625L51.7333 1.20035C51.7225 1.21578 51.7185 1.2344 51.7212 1.25623C51.7235 1.27408 51.7304 1.28877 51.742 1.30029C51.7535 1.31181 51.7683 1.31872 51.7861 1.32101C51.8081 1.32381 51.8267 1.31978 51.8421 1.30893L33.2969 14.3387ZM33.0275 13.9564L51.5727 0.926608C51.6563 0.867828 51.7473 0.844739 51.8458 0.857341C51.9335 0.86859 52.0093 0.906075 52.0732 0.969796C52.1368 1.03352 52.1743 1.10922 52.1856 1.19689C52.1983 1.2951 52.1751 1.38597 52.1161 1.46948L44.4569 12.3316C44.4705 12.3124 44.4745 12.2913 44.4689 12.2684C44.4634 12.2455 44.4502 12.2286 44.4293 12.2177L47.3429 13.7419L50.1657 15.2185C50.2308 15.2526 50.2821 15.3009 50.3195 15.3634C50.3545 15.4218 50.3728 15.4853 50.3746 15.5538C50.3764 15.6222 50.3612 15.6865 50.3291 15.7466C50.295 15.8109 50.2462 15.8617 50.1827 15.8991L25.1368 30.6502C25.0442 30.7047 24.9474 30.7196 24.8467 30.6947C24.7575 30.673 24.6846 30.6246 24.6279 30.5501C24.5711 30.4755 24.5442 30.3921 24.5471 30.3005C24.5504 30.197 24.5908 30.1079 24.6684 30.0334L38.2316 17.0244C38.212 17.0432 38.2044 17.0659 38.2085 17.0926C38.2127 17.1193 38.227 17.1387 38.2513 17.1506L33.0806 14.6249C33.0163 14.5935 32.9646 14.5482 32.9257 14.489C32.8893 14.4335 32.8684 14.3724 32.8631 14.3058C32.8578 14.2392 32.8688 14.1756 32.896 14.115C32.9251 14.0504 32.9689 13.9975 33.0275 13.9564Z" fill="var(--fill-0, #FBFCFE)"/>
<path id="Vector 1_3" d="M64.4232 6.23438C66.5668 6.23438 68.3777 6.96226 69.8559 8.41802C71.334 9.86872 72.0731 11.6339 72.0731 13.7136C72.0731 15.7882 71.334 17.5534 69.8559 19.0091C68.3777 20.4649 66.5668 21.1928 64.4232 21.1928H61.1469V28.048H56.1562V6.23438H64.4232ZM64.4232 16.5135C65.1953 16.5135 65.8302 16.2447 66.328 15.707C66.8258 15.1643 67.0747 14.4998 67.0747 13.7136C67.0747 12.9223 66.8258 12.2578 66.328 11.7201C65.8302 11.1774 65.1953 10.906 64.4232 10.906H61.1469V16.5135H64.4232Z" fill="var(--fill-0, #025CCD)"/>
<path id="Vector 1_4" d="M87.4855 26.1005C85.8854 27.6881 83.9297 28.4819 81.6185 28.4819C79.3124 28.4819 77.3568 27.6881 75.7517 26.1005C74.1516 24.5128 73.3516 22.565 73.3516 20.2571C73.3516 17.9491 74.1516 16.0014 75.7517 14.4137C77.3568 12.8261 79.3124 12.0322 81.6185 12.0322C83.9297 12.0322 85.8854 12.8261 87.4855 14.4137C89.0907 16.0014 89.8932 17.9491 89.8932 20.2571C89.8932 22.565 89.0907 24.5128 87.4855 26.1005ZM79.0584 22.9049C79.7493 23.5897 80.6027 23.932 81.6185 23.932C82.6396 23.932 83.493 23.5897 84.1787 22.9049C84.8644 22.2201 85.2072 21.3375 85.2072 20.2571C85.2072 19.1767 84.8644 18.2941 84.1787 17.6093C83.493 16.9245 82.6396 16.5822 81.6185 16.5822C80.6027 16.5822 79.7493 16.9245 79.0584 17.6093C78.3727 18.2941 78.0298 19.1767 78.0298 20.2571C78.0298 21.3375 78.3727 22.2201 79.0584 22.9049Z" fill="var(--fill-0, #025CCD)"/>
<path id="Vector 1_5" d="M109.853 12.4658H114.844L109.853 28.0481H105.488L102.988 19.7244L100.489 28.0481H96.1233L91.125 12.4658H96.1233L98.3709 20.82L100.802 12.4658H105.175L107.606 20.82L109.853 12.4658Z" fill="var(--fill-0, #025CCD)"/>
<path id="Vector 1_6" d="M121.109 22.1288C121.652 23.5795 122.902 24.3048 124.857 24.3048C126.127 24.3048 127.125 23.9118 127.852 23.1255L131.593 25.2711C130.054 27.4117 127.786 28.4819 124.789 28.4819C122.168 28.4819 120.072 27.7033 118.503 26.1461C116.933 24.5889 116.148 22.6259 116.148 20.2571C116.148 17.9086 116.923 15.9506 118.472 14.3833C120.022 12.8159 122.013 12.0322 124.446 12.0322C126.717 12.0322 128.606 12.8159 130.115 14.3833C131.623 15.9506 132.378 17.9086 132.378 20.2571C132.378 20.9216 132.314 21.5455 132.187 22.1288H121.109ZM121.017 18.6365H127.722C127.265 16.993 126.163 16.1713 124.415 16.1713C122.607 16.1713 121.474 16.993 121.017 18.6365Z" fill="var(--fill-0, #025CCD)"/>
<path id="Vector 1_7" d="M138.241 15.2429C138.53 14.2436 139.117 13.4802 140.001 12.9527C140.885 12.4201 141.857 12.1538 142.919 12.1538V17.4494C141.776 17.2617 140.709 17.4544 139.719 18.0276C138.733 18.6008 138.241 19.5925 138.241 21.0026V28.0481H133.555V12.4658H138.241V15.2429Z" fill="var(--fill-0, #025CCD)"/>
<path id="Vector 1_8" d="M77.6313 43.3225V45.1865C77.6313 48.4481 76.6178 51.0502 74.591 52.993C72.5643 54.9357 69.989 55.9071 66.8651 55.9071C63.4769 55.9071 60.6629 54.8165 58.4228 52.6353C56.1878 50.4542 55.0703 47.776 55.0703 44.6007C55.0703 41.4203 56.1777 38.7294 58.3924 36.528C60.607 34.3215 63.317 33.2183 66.5221 33.2183C68.5641 33.2183 70.4309 33.6773 72.1224 34.5954C73.8191 35.5084 75.1347 36.7131 76.0693 38.2095L71.8253 40.6366C71.3478 39.891 70.6341 39.2798 69.6842 38.8029C68.7394 38.3211 67.6753 38.0801 66.4917 38.0801C64.6377 38.0801 63.1011 38.6939 61.882 39.9214C60.668 41.1489 60.0609 42.7188 60.0609 44.6311C60.0609 46.518 60.6857 48.06 61.9354 49.2571C63.1849 50.4491 64.8485 51.0451 66.926 51.0451C69.8213 51.0451 71.6855 49.9241 72.5186 47.6822H66.6822V43.3225H77.6313Z" fill="var(--fill-0, #025CCD)"/>
<path id="Vector 1_9" d="M98.5564 33.6592L91.2266 47.0883V55.4728H86.2358V47.0883L78.8984 33.6592H84.5749L88.7274 42.0742L92.8801 33.6592H98.5564Z" fill="var(--fill-0, #025CCD)"/>
<path id="Vector 1_10" d="M121.595 33.6592V55.4728H116.604V42.7895L110.95 52.0415H110.387L104.741 42.7895V55.4728H99.75V33.6592H104.741L110.668 43.3525L116.604 33.6592H121.595Z" fill="var(--fill-0, #025CCD)"/>
<path id="Vector 1_11" d="M138.538 55.4728L137.449 52.0415H129.334L128.244 55.4728H122.781L130.21 33.6592H136.572L144.001 55.4728H138.538ZM130.835 47.3698H135.955L133.395 39.358L130.835 47.3698Z" fill="var(--fill-0, #025CCD)"/>
</g>
<defs>
<clipPath id="clip0_489_38">
<rect width="144" height="64" fill="white"/>
</clipPath>
</defs>
</svg>
