<svg preserveAspectRatio="none" width="100%" height="100%" overflow="visible" style="display: block;" viewBox="0 0 24 24" fill="none" xmlns="http://www.w3.org/2000/svg">
<g id="SVG">
<path id="h132" d="M12 2.25C6.61547 2.25 2.25 6.61547 2.25 12C2.25 17.3845 6.61547 21.75 12 21.75C17.3845 21.75 21.75 17.3845 21.75 12C21.75 6.61547 17.3845 2.25 12 2.25ZM16.5 13.5H12C11.7929 13.5 11.6161 13.4268 11.4697 13.2803C11.3232 13.1339 11.25 12.9571 11.25 12.75V6C11.25 5.79289 11.3232 5.61612 11.4697 5.46967C11.6161 5.32322 11.7929 5.25 12 5.25C12.2071 5.25 12.3839 5.32322 12.5303 5.46967C12.6768 5.61612 12.75 5.79289 12.75 6V12H16.5C16.7071 12 16.8839 12.0732 17.0303 12.2197C17.1768 12.3661 17.25 12.5429 17.25 12.75C17.25 12.9571 17.1768 13.1339 17.0303 13.2803C16.8839 13.4268 16.7071 13.5 16.5 13.5Z" fill="var(--fill-0, white)"/>
</g>
</svg>
