<svg width="20" height="20" viewBox="0 0 20 20" fill="none" xmlns="http://www.w3.org/2000/svg">
<path d="M10 0C4.4774 0 0 4.4774 0 10C0 15.5226 4.4774 20 10 20C15.5226 20 20 15.5226 20 10C20 4.4774 15.5226 0 10 0ZM14.6154 11.5385H10C9.78758 11.5385 9.60627 11.4634 9.45607 11.3132C9.30587 11.163 9.23077 10.9816 9.23077 10.7692V3.84615C9.23077 3.63374 9.30587 3.45243 9.45607 3.30223C9.60627 3.15202 9.78758 3.07692 10 3.07692C10.2124 3.07692 10.3937 3.15202 10.5439 3.30222C10.6941 3.45243 10.7692 3.63374 10.7692 3.84615V10H14.6154C14.8278 10 15.0091 10.0751 15.1593 10.2253C15.3095 10.3755 15.3846 10.5568 15.3846 10.7692C15.3846 10.9816 15.3095 11.163 15.1593 11.3132C15.0091 11.4634 14.8278 11.5385 14.6154 11.5385Z" fill="white"/>
</svg>
