<svg preserveAspectRatio="none" width="100%" height="100%" overflow="visible" style="display: block;" viewBox="0 0 20 20" fill="none" xmlns="http://www.w3.org/2000/svg">
<g id="SVG" clip-path="url(#clip0_489_9)">
<path id="h49" d="M17.2 0H2.8C1.26 0 0 1.26 0 2.8V17.2C0 18.74 1.26 20 2.8 20H17.2C18.74 20 20 18.74 20 17.2V2.8C20 1.26 18.74 0 17.2 0ZM6.74 15.86C6.74 16.08 6.56 16.26 6.34 16.26H4.36C4.14 16.26 3.96 16.08 3.96 15.86V7.66C3.96 7.44 4.14 7.26 4.36 7.26H6.34C6.56 7.26 6.74 7.44 6.74 7.66V15.86ZM5.34 6.56C4.38 6.56 3.6 5.78 3.6 4.82C3.6 3.86 4.38 3.08 5.34 3.08C6.3 3.08 7.08 3.86 7.08 4.82C7.08 5.78 6.32 6.56 5.34 6.56ZM16.92 15.88C16.92 16.08 16.76 16.24 16.56 16.24H14.46C14.26 16.24 14.1 16.08 14.1 15.88V11.9C14.1 11.24 14.32 9.44 12.9 9.44C11.8 9.44 11.56 10.7 11.52 11.38V15.88C11.52 16.08 11.36 16.24 11.16 16.24H9.12C8.92 16.24 8.76 16.08 8.76 15.88V7.64C8.76 7.44 8.92 7.28 9.12 7.28H11.16C11.36 7.28 11.52 7.44 11.52 7.64V8.32C11.92 7.68 12.56 7.16 13.86 7.16C16.26 7.16 16.9 9.04 16.9 11.38V15.88H16.92Z" fill="var(--fill-0, #FE9213)"/>
</g>
<defs>
<clipPath id="clip0_489_9">
<rect width="20" height="20" fill="white"/>
</clipPath>
</defs>
</svg>
