<svg preserveAspectRatio="none" width="100%" height="100%" overflow="visible" style="display: block;" viewBox="0 0 479 244" fill="none" xmlns="http://www.w3.org/2000/svg">
<path id="Ellipse 2" d="M479 0C479 32.0425 472.805 63.7713 460.769 93.3748C448.733 122.978 431.092 149.877 408.852 172.534C386.612 195.192 360.21 213.164 331.153 225.427C302.095 237.689 270.952 244 239.5 244C208.048 244 176.905 237.689 147.847 225.427C118.79 213.164 92.3875 195.192 70.1479 172.534C47.9083 149.877 30.2668 122.978 18.2308 93.3747C6.19485 63.7713 -2.74958e-06 32.0425 0 -2.13312e-05L239.5 0L479 0Z" fill="url(#paint0_radial_489_55)" fill-opacity="0.4"/>
<defs>
<radialGradient id="paint0_radial_489_55" cx="0" cy="0" r="1" gradientUnits="userSpaceOnUse" gradientTransform="translate(239.5) rotate(90) scale(244 239.5)">
<stop stop-color="#FA8C16" stop-opacity="0.8"/>
<stop offset="1" stop-color="#FA8C16" stop-opacity="0"/>
</radialGradient>
</defs>
</svg>
