<svg preserveAspectRatio="none" width="100%" height="100%" overflow="visible" style="display: block;" viewBox="0 0 15 15" fill="none" xmlns="http://www.w3.org/2000/svg">
<g id="Group 1">
<path id="Vector 1" d="M13.6625 2.2625L11.7607 0.3625C11.5286 0.130357 11.2179 0 10.8893 0C10.5607 0 10.25 0.128571 10.0179 0.3625L7.96964 2.40714C7.7375 2.63929 7.60714 2.95179 7.60714 3.28036C7.60714 3.61071 7.73571 3.91964 7.96964 4.15357L9.56964 5.75536C9.3874 6.17999 9.16652 6.58347 8.90702 6.96581C8.64752 7.34816 8.35411 7.70241 8.02678 8.02857C7.37143 8.6875 6.60536 9.20714 5.75536 9.575L4.15536 7.97321C3.92321 7.74107 3.6125 7.61071 3.28393 7.61071C3.12023 7.61011 2.96281 7.64124 2.81167 7.70411C2.66053 7.76699 2.52747 7.85669 2.4125 7.97321L0.3625 10.0179C0.130357 10.25 0 10.5625 0 10.8911C0 11.2214 0.128571 11.5304 0.3625 11.7643L2.2625 13.6643C2.65893 14.0607 3.20536 14.2875 3.76607 14.2875C3.88214 14.2875 3.99464 14.2786 4.10893 14.2589C6.47322 13.8696 8.81964 12.6107 10.7143 10.7179C12.6071 8.82143 13.8643 6.475 14.2571 4.10893C14.3696 3.4375 14.1446 2.74643 13.6625 2.2625ZM12.9911 3.89643C12.6429 6.00179 11.5107 8.10179 9.80536 9.80714C8.1 11.5125 6.00179 12.6446 3.89643 12.9929C3.63214 13.0375 3.36071 12.9482 3.16786 12.7571L1.30179 10.8911L3.28036 8.91072L5.41964 11.0536L5.43571 11.0696L5.82143 10.9268C7.00494 10.4917 8.04243 9.82819 8.93391 8.93639C9.82539 8.0446 10.4885 7.00688 10.9232 5.82322L11.0661 5.4375L8.90893 3.28214L10.8875 1.30179L12.7536 3.16786C12.9464 3.36072 13.0357 3.63214 12.9911 3.89643Z" fill="var(--fill-0, #FE9213)"/>
</g>
</svg>
