<svg width="14" height="11" viewBox="0 0 14 11" fill="none" xmlns="http://www.w3.org/2000/svg">
<path d="M12.25 0H1.75C1.26697 0.000516891 0.854669 0.171554 0.513111 0.513112C0.171554 0.854669 0.000516733 1.26697 0 1.75V9.25C0.000516733 9.73304 0.171554 10.1453 0.513111 10.4869C0.854669 10.8284 1.26697 10.9995 1.75 11H12.25C12.733 10.9995 13.1453 10.8284 13.4869 10.4869C13.8284 10.1453 13.9995 9.73304 14 9.25V1.75C13.9995 1.26696 13.8284 0.854669 13.4869 0.513111C13.1453 0.171554 12.733 0.000516574 12.25 0ZM11.8069 2.89469L7.30688 6.39469C7.21662 6.46485 7.11432 6.49994 7 6.49994C6.88568 6.49994 6.78338 6.46485 6.69313 6.39469L2.19313 2.89469C2.08184 2.81065 2.01706 2.69951 1.99876 2.56127C1.98047 2.42303 2.01412 2.29886 2.09971 2.18877C2.18531 2.07868 2.29735 2.01547 2.43584 1.99912C2.57432 1.98278 2.698 2.01818 2.80688 2.10531L7 5.36656L11.1931 2.10531C11.3022 2.02293 11.4245 1.9907 11.56 2.00864C11.6956 2.02657 11.8053 2.08949 11.8892 2.19741C11.9731 2.30533 12.007 2.42717 11.991 2.56292C11.975 2.69868 11.9136 2.80927 11.8069 2.89469Z" fill="#FE9213"/>
</svg>
