<svg preserveAspectRatio="none" width="100%" height="100%" overflow="visible" style="display: block;" viewBox="0 0 40 40" fill="none" xmlns="http://www.w3.org/2000/svg">
<g id="SVG" clip-path="url(#clip0_715_25)">
<path id="h77" d="M20 0.625C9.29922 0.625 0.625 9.29922 0.625 20C0.625 30.7008 9.29922 39.375 20 39.375C30.7008 39.375 39.375 30.7008 39.375 20C39.375 9.29922 30.7008 0.625 20 0.625ZM26.4289 28.5625C26.1242 28.8656 25.8047 29.1836 25.5453 29.4438C25.3117 29.6781 25.1469 29.9672 25.0633 30.2805C24.9453 30.7227 24.85 31.1695 24.6906 31.5984L23.332 35.2586C22.257 35.493 21.1445 35.625 20 35.625V33.4859C20.132 32.5 19.4031 30.6531 18.232 29.482C17.7633 29.0133 17.5 28.3773 17.5 27.7141V25.2133C17.5 24.3039 17.0102 23.468 16.2141 23.0281C15.0914 22.407 13.4945 21.5391 12.4008 20.9883C11.5039 20.5367 10.6742 19.9617 9.92813 19.2891L9.86563 19.2328C9.59886 18.992 9.34747 18.7361 9.11146 18.4651C8.87546 18.194 8.65653 17.9098 8.45469 17.6125C7.72188 16.5367 6.52813 14.7672 5.75235 13.6172C7.35157 10.0625 10.2336 7.20781 13.8148 5.65703L15.6906 6.59531C16.5219 7.01094 17.5 6.40703 17.5 5.47734V4.59453C18.1242 4.49375 18.7594 4.42969 19.4055 4.40547L21.6164 6.61641C22.1047 7.10469 22.1047 7.89609 21.6164 8.38437L21.25 8.75L20.4422 9.55781C20.1984 9.80156 20.1984 10.1977 20.4422 10.4414L20.8086 10.8078C21.0523 11.0516 21.0523 11.4477 20.8086 11.6914L20.1836 12.3164C20.1249 12.375 20.0573 12.4201 19.9807 12.4518C19.9041 12.4834 19.8243 12.4992 19.7414 12.4992H19.0391C18.8766 12.4992 18.7203 12.5625 18.6031 12.6766L17.8281 13.4305C17.7307 13.5254 17.6705 13.6399 17.6478 13.774C17.625 13.9081 17.644 14.0361 17.7047 14.1578L18.9227 16.5945C19.1305 17.0102 18.8281 17.4992 18.3641 17.4992H17.9234C17.7727 17.4992 17.6273 17.4445 17.5141 17.3461L16.7891 16.7164C16.6222 16.5716 16.4304 16.4776 16.2137 16.4344C15.997 16.3912 15.7839 16.4045 15.5742 16.4742L13.1391 17.2859C12.9484 17.3495 12.7944 17.4628 12.6769 17.6259C12.5594 17.7889 12.5007 17.9709 12.5008 18.1719C12.5008 18.5258 12.7008 18.8484 13.0172 19.007L13.8828 19.4398C14.618 19.8078 15.4289 19.9992 16.2508 19.9992C17.0727 19.9992 18.0156 22.1312 18.7508 22.4992H23.9656C24.6289 22.4992 25.2641 22.7625 25.7336 23.2312L26.8031 24.3008C27.0265 24.5243 27.1987 24.782 27.3196 25.074C27.4404 25.3659 27.5008 25.6699 27.5008 25.9859C27.5006 26.4696 27.4077 26.9346 27.2219 27.3812C27.0361 27.8277 26.7718 28.2215 26.4289 28.5625ZM33.2031 21.4258C32.7508 21.3125 32.3563 21.0352 32.0977 20.6469L30.693 18.5398C30.4828 18.2251 30.3777 17.8785 30.3777 17.5C30.3777 17.1215 30.4828 16.7749 30.693 16.4602L32.2234 14.1648C32.4047 13.8937 32.6531 13.6734 32.9453 13.5281L33.9594 13.0211C35.0156 15.1242 35.625 17.4898 35.625 20C35.625 20.6773 35.5672 21.3406 35.4828 21.9953L33.2031 21.4258Z" fill="var(--fill-0, #FA8C16)"/>
</g>
<defs>
<clipPath id="clip0_715_25">
<rect width="40" height="40" fill="white"/>
</clipPath>
</defs>
</svg>
