<svg preserveAspectRatio="none" width="100%" height="100%" overflow="visible" style="display: block;" viewBox="0 0 32 29" fill="none" xmlns="http://www.w3.org/2000/svg">
<g id="SVG" clip-path="url(#clip0_715_31)">
<path id="h116" d="M30.3445 2.05928C30.0333 1.442 29.1445 1.41731 28.7722 2.00002C27.05 4.66175 23.9667 6.32101 20.4445 6.32101H16C10.1111 6.32101 5.33335 10.5679 5.33335 15.8025C5.33335 16.1482 5.37779 16.479 5.41668 16.8148C8.96112 14.558 14.0778 12.642 21.3333 12.642C21.8222 12.642 22.2222 12.9976 22.2222 13.4321C22.2222 13.8667 21.8222 14.2222 21.3333 14.2222C7.36668 14.2222 1.44446 21.8321 0.133345 24.6914C-0.233321 25.4963 0.200012 26.4148 1.10557 26.7457C2.01668 27.0815 3.05001 26.6914 3.42779 25.8914C3.51112 25.7136 4.5889 23.5259 7.42223 21.4173C9.22223 23.5852 12.6445 25.6543 17.1389 25.2297C25.8611 24.6667 32 17.7136 32 9.20002C32 6.72101 31.4 4.15311 30.3445 2.05928Z" fill="var(--fill-0, #FA8C16)"/>
</g>
<defs>
<clipPath id="clip0_715_31">
<rect width="32" height="28.4444" fill="white"/>
</clipPath>
</defs>
</svg>
