<svg preserveAspectRatio="none" width="100%" height="100%" overflow="visible" style="display: block;" viewBox="0 0 32 26" fill="none" xmlns="http://www.w3.org/2000/svg">
<g id="SVG">
<path id="h95" d="M21.735 5.12002H17.44C17.04 5.12002 16.655 5.24002 16.36 5.45602L11.445 9.05602C11.44 9.06002 11.435 9.06802 11.43 9.07202C10.6 9.69602 10.615 10.692 11.325 11.312C11.96 11.868 13.295 12.016 14.13 11.42C14.135 11.416 14.145 11.416 14.15 11.412L18.145 8.48402C18.47 8.24802 18.98 8.26402 19.275 8.52402C19.575 8.78402 19.55 9.18802 19.225 9.42802L17.92 10.384L25.2 15.112C25.345 15.208 25.475 15.312 25.595 15.42V7.68002L22.865 5.49602C22.57 5.25602 22.16 5.12002 21.735 5.12002ZM27.2 7.68802V16.644C27.2 17.352 27.915 17.924 28.8 17.924H32V7.68802H27.2ZM29.6 16.644C29.16 16.644 28.8 16.356 28.8 16.004C28.8 15.652 29.16 15.364 29.6 15.364C30.04 15.364 30.4 15.652 30.4 16.004C30.4 16.356 30.04 16.644 29.6 16.644ZM0 17.92H3.2C4.085 17.92 4.8 17.348 4.8 16.64V7.68802H0V17.92ZM2.4 15.364C2.84 15.364 3.2 15.652 3.2 16.004C3.2 16.356 2.84 16.644 2.4 16.644C1.96 16.644 1.6 16.356 1.6 16.004C1.6 15.648 1.96 15.364 2.4 15.364ZM24.195 16.108L16.73 11.26L15.23 12.36C13.745 13.444 11.47 13.34 10.145 12.184C8.8 11.008 8.905 9.18802 10.365 8.11602L14.455 5.12002H10.265C9.84 5.12002 9.435 5.25602 9.135 5.49602L6.4 7.68002V16.636H7.315L11.84 19.912C13.21 20.804 15.225 20.636 16.34 19.54L16.35 19.532L17.245 20.152C18.04 20.672 19.215 20.572 19.86 19.936L21.43 18.392L21.7 18.568C22.385 19.012 23.395 18.932 23.95 18.38L24.425 17.912C24.985 17.36 24.88 16.556 24.195 16.108Z" fill="var(--fill-0, #FA8C16)"/>
</g>
</svg>
