<svg preserveAspectRatio="none" width="100%" height="100%" overflow="visible" style="display: block;" viewBox="0 0 48 48" fill="none" xmlns="http://www.w3.org/2000/svg">
<g id="SVG">
<path id="h69" d="M30.5719 21.7406L26.1188 28.8188C26.0277 28.945 25.9271 29.0632 25.817 29.1732C25.7069 29.2833 25.5887 29.3839 25.4625 29.475C24.8282 29.9175 24.13 30.073 23.3679 29.9416C22.6058 29.8103 21.9999 29.4299 21.5504 28.8006C21.1009 28.1713 20.9376 27.4748 21.0605 26.7113C21.1834 25.9478 21.557 25.3377 22.1813 24.8813L29.2594 20.4281C29.4241 20.3133 29.607 20.2558 29.8078 20.2558C30.0087 20.2558 30.1915 20.3133 30.3563 20.4281C30.5666 20.58 30.6928 20.7839 30.7348 21.0399C30.7769 21.2959 30.7226 21.5295 30.5719 21.7406Z" fill="var(--fill-0, #FA8C16)"/>
<path id="h70" d="M24 6C12.4031 6 3 15.3937 3 26.9906C2.99644 29.556 3.44939 32.0381 4.35883 34.4369C5.26827 36.8357 6.57471 38.9943 8.27812 40.9125C8.38125 41.025 8.475 41.1375 8.57812 41.2406C9.04734 41.7486 9.62772 42.0017 10.3192 41.9998C11.0108 41.9979 11.5898 41.7418 12.0562 41.2312C15.2711 37.7376 19.2523 35.9908 24 35.9908C28.7477 35.9908 32.7289 37.7376 35.9437 41.2312C36.4102 41.7418 36.9892 41.9979 37.6808 41.9998C38.3723 42.0017 38.9527 41.7486 39.4219 41.2406L39.7219 40.9125C41.4253 38.9943 42.7317 36.8357 43.6412 34.4369C44.5506 32.0381 45.0036 29.556 45 26.9906C45 15.3937 35.5969 6 24 6Z" stroke="var(--stroke-0, #FA8C16)" stroke-width="3" stroke-linejoin="round"/>
<path id="h71" d="M24 12V15M39 27H36M12 27H9M15.5147 18.5147L13.3931 16.3931M32.4853 18.5147L34.6069 16.3931" stroke="var(--stroke-0, #FA8C16)" stroke-width="3" stroke-linecap="round"/>
</g>
</svg>
