<svg preserveAspectRatio="none" width="100%" height="100%" overflow="visible" style="display: block;" viewBox="0 0 48 48" fill="none" xmlns="http://www.w3.org/2000/svg">
<g id="SVG">
<path id="h81" d="M29.5566 3.09375L9 28.5H21L18.0459 44.7403C18.034 44.8082 18.0502 44.8684 18.0945 44.9212C18.1389 44.9739 18.1955 45.0002 18.2644 45C18.2993 45 18.3323 44.9921 18.3635 44.9764C18.3947 44.9608 18.4207 44.9389 18.4416 44.9109L39 19.5H27L29.9681 3.25781C29.9766 3.18917 29.9579 3.12898 29.912 3.07724C29.8661 3.02551 29.8085 2.99976 29.7394 3C29.7032 3.00014 29.669 3.00848 29.6367 3.025C29.6045 3.04152 29.5778 3.06443 29.5566 3.09375Z" stroke="var(--stroke-0, #FA8C16)" stroke-width="3" stroke-linejoin="round"/>
</g>
</svg>
