<svg preserveAspectRatio="none" width="100%" height="100%" overflow="visible" style="display: block;" viewBox="0 0 48 48" fill="none" xmlns="http://www.w3.org/2000/svg">
<g id="SVG">
<path id="h65" d="M42.75 12C41.4292 12.0003 40.3968 12.5461 39.6527 13.6374C38.9086 14.7286 38.7776 15.8891 39.2597 17.1188L31.3687 25.0097C30.9289 24.8366 30.4727 24.75 30 24.75C29.5273 24.75 29.0711 24.8366 28.6312 25.0097L22.9903 19.3688C23.4735 18.1387 23.343 16.9777 22.5987 15.8856C21.8545 14.7936 20.8216 14.2475 19.5 14.2475C18.1784 14.2475 17.1455 14.7936 16.4012 15.8856C15.657 16.9777 15.5264 18.1387 16.0097 19.3688L6.61875 28.7597C5.48012 28.313 4.38507 28.4021 3.33361 29.0269C2.28214 29.6518 1.6804 30.571 1.52838 31.7846C1.37637 32.9982 1.73279 34.0375 2.59766 34.9023C3.46252 35.7672 4.50177 36.1236 5.71539 35.9716C6.92901 35.8196 7.84823 35.2179 8.47306 34.1664C9.09789 33.1149 9.18697 32.0199 8.74031 30.8812L18.1312 21.4903C18.5711 21.6634 19.0273 21.75 19.5 21.75C19.9727 21.75 20.4289 21.6634 20.8687 21.4903L26.5097 27.1312C26.0265 28.3613 26.157 29.5223 26.9012 30.6144C27.6455 31.7064 28.6784 32.2525 30 32.2525C31.3216 32.2525 32.3545 31.7064 33.0988 30.6144C33.843 29.5223 33.9735 28.3613 33.4903 27.1312L41.3812 19.2403C42.4755 19.6702 43.5371 19.6008 44.5661 19.0322C45.5951 18.4637 46.2188 17.6018 46.4372 16.4466C46.6556 15.2914 46.3895 14.2613 45.6391 13.3563C44.8887 12.4513 43.9256 11.9992 42.75 12Z" fill="var(--fill-0, #FE9213)"/>
</g>
</svg>
