<svg width="16" height="16" viewBox="0 0 16 16" fill="none" xmlns="http://www.w3.org/2000/svg">
<path d="M14.6667 11.9998V14.1665C14.6674 14.3761 14.6228 14.5836 14.536 14.7755C14.4491 14.9673 14.3221 15.139 14.1631 15.2791C14.0042 15.4192 13.8167 15.5244 13.6128 15.5879C13.4089 15.6514 13.1935 15.6718 12.98 15.6478C10.7581 15.3898 8.63159 14.5894 6.79335 13.3138C5.0837 12.1441 3.64465 10.6051 2.57502 8.8145C1.29165 6.96564 0.491041 4.82536 0.23669 2.58984C0.212729 2.37713 0.233019 2.16247 0.296079 1.95924C0.35914 1.75602 0.463762 1.56906 0.603172 1.41039C0.742582 1.25173 0.913673 1.12481 1.10493 1.03777C1.29618 0.950728 1.50307 0.905273 1.71202 0.904837H3.87869C4.23665 0.901248 4.58366 1.02936 4.85464 1.26531C5.12562 1.50126 5.30281 1.82989 5.35135 2.18784C5.44183 2.90368 5.6168 3.60711 5.87202 4.28384C5.97129 4.5569 5.98978 4.85368 5.92548 5.13706C5.86118 5.42044 5.71672 5.67939 5.51069 5.88384L4.59535 6.79917C5.65629 8.57555 7.17731 10.0966 8.95369 11.1575L9.86902 10.2422C10.0735 10.0361 10.3324 9.89166 10.6158 9.82736C10.8992 9.76307 11.196 9.78155 11.469 9.88084C12.1458 10.1361 12.8492 10.311 13.565 10.4015C13.9274 10.4505 14.2596 10.6311 14.4962 10.9067C14.7328 11.1824 14.8588 11.5349 14.8507 11.8965L14.6667 11.9998Z" fill="#FE9213"/>
</svg>
