<svg preserveAspectRatio="none" width="100%" height="100%" overflow="visible" style="display: block;" viewBox="0 0 20 20" fill="none" xmlns="http://www.w3.org/2000/svg">
<g id="SVG">
<path id="h45" d="M17.6172 14.6094C16.9969 13.9844 15.4945 13.0723 14.7656 12.7047C13.8164 12.2266 13.7383 12.1875 12.9922 12.7418C12.4945 13.1117 12.1637 13.4422 11.5812 13.318C10.9988 13.1938 9.7332 12.4934 8.625 11.3887C7.5168 10.284 6.77578 8.98164 6.65117 8.40117C6.52656 7.8207 6.8625 7.49375 7.22891 6.99492C7.74531 6.2918 7.70625 6.17461 7.26484 5.22539C6.9207 4.48711 5.98203 2.99883 5.35469 2.38164C4.68359 1.71875 4.68359 1.83594 4.25117 2.01562C4.07515 2.08969 3.90288 2.17163 3.73436 2.26147C3.56585 2.35131 3.40179 2.44865 3.24219 2.55352C2.61719 2.96875 2.27031 3.31367 2.02773 3.83203C1.78516 4.35039 1.67617 5.56563 2.92891 7.84141C4.18164 10.1172 5.06055 11.2809 6.87969 13.0949C8.69883 14.909 10.0977 15.8844 12.1426 17.0313C14.6723 18.448 15.6426 18.1719 16.1625 17.9297C16.6824 17.6875 17.0289 17.3438 17.4449 16.7188C17.5501 16.5594 17.6476 16.3956 17.7377 16.2273C17.8277 16.0589 17.9098 15.8868 17.984 15.7109C18.1641 15.2801 18.2812 15.2801 17.6172 14.6094Z" stroke="var(--stroke-0, #FE9213)" stroke-width="1.25"/>
</g>
</svg>
