<svg preserveAspectRatio="none" width="100%" height="100%" overflow="visible" style="display: block;" viewBox="0 0 16 16" fill="none" xmlns="http://www.w3.org/2000/svg">
<g id="SVG">
<path id="h86" d="M14.5 12.0122C14.43 12.0121 14.3608 12.0048 14.2923 11.9902C14.2239 11.9756 14.1577 11.9541 14.0938 11.9256C14.0789 11.919 14.0644 11.9117 14.0502 11.9037C14.0361 11.8956 14.0223 11.8869 14.0091 11.8775L11.4244 10.0581C11.2914 9.9645 11.1874 9.8455 11.1125 9.70114C11.0375 9.55678 11 9.40328 11 9.24063V6.75938C11 6.59672 11.0375 6.44322 11.1125 6.29886C11.1874 6.1545 11.2914 6.0355 11.4244 5.94188L14.0091 4.1225C14.0223 4.1131 14.0361 4.10438 14.0502 4.09634C14.0644 4.0883 14.0789 4.08098 14.0937 4.07438C14.4244 3.92738 14.7414 3.95245 15.0449 4.14961C15.3483 4.34677 15.5 4.62628 15.5 4.98813V11.0119C15.5 11.288 15.4024 11.5237 15.2071 11.719C15.0118 11.9142 14.7761 12.0119 14.5 12.0119L14.5 12.0122ZM8.375 12.5H2.625C2.03845 12.4994 1.53779 12.2917 1.12304 11.877C0.708282 11.4622 0.500603 10.9616 0.5 10.375V5.625C0.500603 5.03845 0.708282 4.53779 1.12304 4.12304C1.53779 3.70828 2.03845 3.5006 2.625 3.5H8.39C8.97237 3.50069 9.46946 3.70693 9.88126 4.11874C10.2931 4.53054 10.4993 5.02763 10.5 5.61V10.375C10.4994 10.9616 10.2917 11.4622 9.87696 11.877C9.46221 12.2917 8.96155 12.4994 8.375 12.5Z" fill="var(--fill-0, #FE9213)"/>
</g>
</svg>
