<svg preserveAspectRatio="none" width="100%" height="100%" overflow="visible" style="display: block;" viewBox="0 0 16 16" fill="none" xmlns="http://www.w3.org/2000/svg">
<g id="SVG">
<path id="h64" d="M15 3.99999C15 3.4477 14.8047 2.9763 14.4142 2.58577C14.0237 2.19525 13.5523 1.99999 13 1.99999H12.5V1.51405C12.5 1.24499 12.2931 1.01405 12.0241 1.00061C11.8814 0.99374 11.7584 1.03955 11.6551 1.13806C11.5517 1.23656 11.5 1.3572 11.5 1.49999V1.99999H4.5V1.51405C4.5 1.24499 4.29313 1.01405 4.02406 1.00061C3.88144 0.99374 3.75845 1.03955 3.65508 1.13806C3.5517 1.23656 3.50001 1.3572 3.5 1.49999V1.99999H3C2.44772 1.99999 1.97631 2.19525 1.58579 2.58577C1.19526 2.9763 1 3.4477 1 3.99999V4.37499C1 4.4095 1.0122 4.43897 1.03661 4.46337C1.06102 4.48778 1.09048 4.49999 1.125 4.49999H14.875C14.9095 4.49999 14.939 4.48778 14.9634 4.46337C14.9878 4.43897 15 4.4095 15 4.37499V3.99999ZM1 13C1 13.5523 1.19526 14.0237 1.58579 14.4142C1.97631 14.8047 2.44772 15 3 15H13C13.5523 15 14.0237 14.8047 14.4142 14.4142C14.8047 14.0237 15 13.5523 15 13V5.59374C15 5.56785 14.9908 5.54575 14.9725 5.52744C14.9542 5.50914 14.9321 5.49999 14.9062 5.49999H1.09375C1.06786 5.49999 1.04576 5.50914 1.02746 5.52744C1.00915 5.54575 1 5.56785 1 5.59374V13ZM11.75 6.49999C11.9571 6.49999 12.1339 6.57321 12.2803 6.71966C12.4268 6.8661 12.5 7.04288 12.5 7.24999C12.5 7.45709 12.4268 7.63387 12.2803 7.78032C12.1339 7.92676 11.9571 7.99999 11.75 7.99999C11.5429 7.99999 11.3661 7.92676 11.2197 7.78032C11.0732 7.63387 11 7.45709 11 7.24999C11 7.04288 11.0732 6.8661 11.2197 6.71966C11.3661 6.57321 11.5429 6.49999 11.75 6.49999ZM11.75 8.99999C11.9571 8.99999 12.1339 9.07321 12.2803 9.21966C12.4268 9.3661 12.5 9.54288 12.5 9.74999C12.5 9.95709 12.4268 10.1339 12.2803 10.2803C12.1339 10.4268 11.9571 10.5 11.75 10.5C11.5429 10.5 11.3661 10.4268 11.2197 10.2803C11.0732 10.1339 11 9.95709 11 9.74999C11 9.54288 11.0732 9.3661 11.2197 9.21966C11.3661 9.07321 11.5429 8.99999 11.75 8.99999ZM9.25 6.49999C9.45711 6.49999 9.63388 6.57321 9.78033 6.71966C9.92678 6.8661 10 7.04288 10 7.24999C10 7.45709 9.92678 7.63387 9.78033 7.78032C9.63388 7.92676 9.45711 7.99999 9.25 7.99999C9.04289 7.99999 8.86612 7.92676 8.71967 7.78032C8.57322 7.63387 8.5 7.45709 8.5 7.24999C8.5 7.04288 8.57322 6.8661 8.71967 6.71966C8.86612 6.57321 9.04289 6.49999 9.25 6.49999ZM9.25 8.99999C9.45711 8.99999 9.63388 9.07321 9.78033 9.21966C9.92678 9.3661 10 9.54288 10 9.74999C10 9.95709 9.92678 10.1339 9.78033 10.2803C9.63388 10.4268 9.45711 10.5 9.25 10.5C9.04289 10.5 8.86612 10.4268 8.71967 10.2803C8.57322 10.1339 8.5 9.95709 8.5 9.74999C8.5 9.54288 8.57322 9.3661 8.71967 9.21966C8.86612 9.07321 9.04289 8.99999 9.25 8.99999ZM9.25 11.5C9.45711 11.5 9.63388 11.5732 9.78033 11.7197C9.92678 11.8661 10 12.0429 10 12.25C10 12.4571 9.92678 12.6339 9.78033 12.7803C9.63388 12.9268 9.45711 13 9.25 13C9.04289 13 8.86612 12.9268 8.71967 12.7803C8.57322 12.6339 8.5 12.4571 8.5 12.25C8.5 12.0429 8.57322 11.8661 8.71967 11.7197C8.86612 11.5732 9.04289 11.5 9.25 11.5ZM6.75 8.99999C6.95711 8.99999 7.13388 9.07321 7.28033 9.21966C7.42678 9.3661 7.5 9.54288 7.5 9.74999C7.5 9.95709 7.42678 10.1339 7.28033 10.2803C7.13388 10.4268 6.95711 10.5 6.75 10.5C6.54289 10.5 6.36612 10.4268 6.21967 10.2803C6.07322 10.1339 6 9.95709 6 9.74999C6 9.54288 6.07322 9.3661 6.21967 9.21966C6.36612 9.07321 6.54289 8.99999 6.75 8.99999ZM6.75 11.5C6.95711 11.5 7.13388 11.5732 7.28033 11.7197C7.42678 11.8661 7.5 12.0429 7.5 12.25C7.5 12.4571 7.42678 12.6339 7.28033 12.7803C7.13388 12.9268 6.95711 13 6.75 13C6.54289 13 6.36612 12.9268 6.21967 12.7803C6.07322 12.6339 6 12.4571 6 12.25C6 12.0429 6.07322 11.8661 6.21967 11.7197C6.36612 11.5732 6.54289 11.5 6.75 11.5ZM4.25 8.99999C4.45711 8.99999 4.63388 9.07321 4.78033 9.21966C4.92678 9.3661 5 9.54288 5 9.74999C5 9.95709 4.92678 10.1339 4.78033 10.2803C4.63388 10.4268 4.45711 10.5 4.25 10.5C4.04289 10.5 3.86612 10.4268 3.71967 10.2803C3.57322 10.1339 3.5 9.95709 3.5 9.74999C3.5 9.54288 3.57322 9.3661 3.71967 9.21966C3.86612 9.07321 4.04289 8.99999 4.25 8.99999ZM4.25 11.5C4.45711 11.5 4.63388 11.5732 4.78033 11.7197C4.92678 11.8661 5 12.0429 5 12.25C5 12.4571 4.92678 12.6339 4.78033 12.7803C4.63388 12.9268 4.45711 13 4.25 13C4.04289 13 3.86612 12.9268 3.71967 12.7803C3.57322 12.6339 3.5 12.4571 3.5 12.25C3.5 12.0429 3.57322 11.8661 3.71967 11.7197C3.86612 11.5732 4.04289 11.5 4.25 11.5Z" fill="var(--fill-0, #FE9213)"/>
</g>
</svg>
