<svg preserveAspectRatio="none" width="100%" height="100%" overflow="visible" style="display: block;" viewBox="0 0 32 32" fill="none" xmlns="http://www.w3.org/2000/svg">
<g id="SVG" clip-path="url(#clip0_489_60)">
<path id="h79" d="M11.0037 28.3969C11.0044 28.79 11.1206 29.175 11.3387 29.5025L12.4069 31.1081C12.5922 31.3869 12.8323 31.6053 13.1273 31.7634C13.4223 31.9216 13.7372 32.0006 14.0719 32.0006H17.9287C18.2635 32.0006 18.5783 31.9216 18.8733 31.7634C19.1683 31.6053 19.4085 31.3869 19.5937 31.1081L20.6619 29.5025C20.7709 29.3387 20.8539 29.1627 20.911 28.9744C20.968 28.7861 20.9967 28.5936 20.9969 28.3969L20.9994 26H11.0006L11.0037 28.3969ZM5 11C5 13.7731 6.02813 16.3031 7.7225 18.2363C8.755 19.4144 10.37 21.8756 10.9856 23.9519C10.9881 23.9681 10.99 23.9844 10.9925 24.0006H21.0075C21.01 23.9844 21.0119 23.9687 21.0144 23.9519C21.63 21.8756 23.245 19.4144 24.2775 18.2362C25.9719 16.3031 27 13.7731 27 11C27 4.91313 22.0569 -0.01875 15.9656 0C9.59 0.019375 5 5.18563 5 11ZM16 6C13.2431 6 11 8.24313 11 11C11 11.5525 10.5525 12 10 12C9.4475 12 9 11.5525 9 11C9 7.14 12.14 4 16 4C16.5525 4 17 4.4475 17 5C17 5.5525 16.5525 6 16 6Z" fill="var(--fill-0, #FA8C16)" fill-opacity="0.75"/>
</g>
<defs>
<clipPath id="clip0_489_60">
<rect width="32" height="32" fill="white"/>
</clipPath>
</defs>
</svg>
