<svg preserveAspectRatio="none" width="100%" height="100%" overflow="visible" style="display: block;" viewBox="0 0 20 20" fill="none" xmlns="http://www.w3.org/2000/svg">
<g id="SVG">
<path id="h143" d="M19.375 4.27734C19.0233 4.43015 18.6624 4.55662 18.2923 4.65676C17.9222 4.7569 17.5468 4.82964 17.166 4.875C17.5661 4.6407 17.912 4.34325 18.2035 3.98266C18.495 3.62207 18.7133 3.2216 18.8586 2.78125C18.4803 3.00246 18.086 3.19012 17.6758 3.34422C17.2655 3.49832 16.8452 3.61665 16.4148 3.69922C16.0486 3.31538 15.6215 3.0193 15.1336 2.81099C14.6456 2.60268 14.1364 2.49902 13.6059 2.5C11.4801 2.5 9.75977 4.19531 9.75977 6.28516C9.75901 6.4305 9.76693 6.57537 9.78353 6.71977C9.80012 6.86416 9.82528 7.00705 9.85898 7.14844C8.31785 7.07619 6.85704 6.69562 5.47656 6.00674C4.09607 5.31786 2.91365 4.37941 1.9293 3.19141C1.75851 3.47932 1.62874 3.78467 1.54 4.10745C1.45125 4.43022 1.40667 4.75899 1.40625 5.09375C1.40625 6.40625 2.09102 7.56641 3.125 8.24609C2.8187 8.23882 2.51765 8.19523 2.22187 8.1153C1.92609 8.03538 1.64406 7.92143 1.37578 7.77344V7.82031C1.37578 9.65625 2.70391 11.1836 4.46172 11.5313C4.29644 11.5753 4.129 11.6085 3.95941 11.6307C3.78981 11.6529 3.61949 11.664 3.44844 11.6641C3.32707 11.6643 3.20598 11.6585 3.08518 11.6468C2.96438 11.635 2.84445 11.6173 2.72539 11.5938C3.21406 13.0977 4.63633 14.1914 6.32109 14.2227C5.6366 14.7502 4.88516 15.1528 4.0668 15.4304C3.24843 15.7081 2.40715 15.8458 1.54297 15.8438C1.38957 15.8435 1.23631 15.8388 1.08319 15.8297C0.930068 15.8206 0.777337 15.807 0.625 15.7891C1.50414 16.3504 2.44453 16.7766 3.44619 17.0677C4.44784 17.3587 5.4702 17.5028 6.51328 17.5C13.5977 17.5 17.468 11.7305 17.468 6.72656C17.468 6.5625 17.4637 6.39844 17.4559 6.23828C17.8315 5.97111 18.1805 5.67281 18.5029 5.34338C18.8253 5.01396 19.116 4.65862 19.375 4.27734Z" fill="var(--fill-0, white)"/>
</g>
</svg>
