<svg preserveAspectRatio="none" width="100%" height="100%" overflow="visible" style="display: block;" viewBox="0 0 32 32" fill="none" xmlns="http://www.w3.org/2000/svg">
<g id="SVG" clip-path="url(#clip0_489_57)">
<path id="h85" d="M31.57 1.19336C31.4957 0.847656 31.1539 0.505859 30.8071 0.431641C28.7948 0 27.2192 0 25.6505 0C19.1985 0 15.3293 3.4502 12.4408 8H5.92736C4.90563 8.00098 3.70507 8.74219 3.24694 9.65527L0.157226 15.8311C0.109485 15.9364 0.0723867 16.0453 0.0459322 16.1578C0.0194776 16.2704 0.00416688 16.3845 0 16.5C0.000150111 16.9142 0.146693 17.2678 0.439628 17.5606C0.732563 17.8535 1.08614 18 1.50036 18H7.98851L6.58385 19.4043C5.87352 20.1144 5.7716 21.4204 6.58385 22.2324L9.76536 25.4141C10.4626 26.1133 11.7751 26.2363 12.5952 25.4141L13.9999 24.0098V30.5C14 30.9142 14.1465 31.2678 14.4395 31.5606C14.7324 31.8535 15.086 32 15.5002 32C15.6158 31.9957 15.7299 31.9804 15.8424 31.9539C15.955 31.9275 16.064 31.8904 16.1694 31.8428L22.3399 28.7559C23.2542 28.2998 23.9967 27.0996 23.9967 26.0771V19.5498C28.534 16.6553 31.9988 12.7744 31.9988 6.35644C32.0047 4.78125 32.0047 3.20605 31.57 1.19336ZM24.0025 10.5C23.3122 10.4998 22.723 10.2556 22.235 9.76741C21.747 9.27919 21.503 8.68992 21.5031 7.9996C21.5032 7.30928 21.7474 6.72009 22.2356 6.23202C22.7238 5.74395 23.313 5.49995 24.0033 5.5C24.6936 5.50006 25.2829 5.74416 25.771 6.2323C26.2591 6.72045 26.5031 7.30968 26.5031 8C26.5027 8.69031 26.2584 9.27949 25.7703 9.76756C25.2821 10.2556 24.6928 10.4998 24.0025 10.5Z" fill="var(--fill-0, #FA8C16)" fill-opacity="0.75"/>
</g>
<defs>
<clipPath id="clip0_489_57">
<rect width="32" height="32" fill="white"/>
</clipPath>
</defs>
</svg>
