<svg preserveAspectRatio="none" width="100%" height="100%" overflow="visible" style="display: block;" viewBox="0 0 16 16" fill="none" xmlns="http://www.w3.org/2000/svg">
<g id="SVG">
<path id="h30" d="M13.5 5.5H10V2C10 1.58579 9.85355 1.23223 9.56066 0.93934C9.26777 0.646447 8.91421 0.5 8.5 0.5H2.5C2.08579 0.5 1.73223 0.646447 1.43934 0.93934C1.14645 1.23223 1 1.58579 1 2V15C1 15.1381 1.04882 15.2559 1.14645 15.3536C1.24408 15.4512 1.36193 15.5 1.5 15.5H4.75C4.81904 15.5 4.87796 15.4756 4.92678 15.4268C4.97559 15.378 5 15.319 5 15.25V13.0141C5 12.745 5.20687 12.5141 5.47594 12.5006C5.61856 12.4938 5.74155 12.5396 5.84492 12.6381C5.94829 12.7366 5.99999 12.8572 6 13V15.25C6 15.319 6.02441 15.378 6.07322 15.4268C6.12204 15.4756 6.18096 15.5 6.25 15.5H14.5C14.6381 15.5 14.7559 15.4512 14.8536 15.3536C14.9512 15.2559 15 15.1381 15 15V7C15 6.58579 14.8536 6.23223 14.5607 5.93934C14.2678 5.64645 13.9142 5.5 13.5 5.5ZM3.065 13.4959C2.91962 13.5149 2.79081 13.4773 2.67855 13.383C2.56629 13.2887 2.50698 13.1683 2.50063 13.0218C2.49428 12.8754 2.54293 12.7503 2.64661 12.6466C2.75028 12.5429 2.87535 12.4943 3.02183 12.5006C3.1683 12.507 3.28869 12.5663 3.383 12.6785C3.4773 12.7908 3.51495 12.9196 3.49594 13.065C3.48124 13.1774 3.43384 13.2736 3.35371 13.3537C3.27359 13.4338 3.17735 13.4812 3.065 13.4959ZM3.065 10.9959C2.91962 11.0149 2.79081 10.9773 2.67855 10.883C2.56629 10.7887 2.50698 10.6683 2.50063 10.5218C2.49428 10.3754 2.54293 10.2503 2.64661 10.1466C2.75028 10.0429 2.87535 9.99428 3.02183 10.0006C3.1683 10.007 3.28869 10.0663 3.383 10.1785C3.4773 10.2908 3.51495 10.4196 3.49594 10.565C3.48124 10.6774 3.43384 10.7736 3.35371 10.8537C3.27359 10.9338 3.17735 10.9812 3.065 10.9959ZM3.065 8.49594C2.91962 8.51495 2.79081 8.4773 2.67855 8.383C2.56629 8.28869 2.50698 8.1683 2.50063 8.02183C2.49428 7.87535 2.54293 7.75028 2.64661 7.64661C2.75028 7.54293 2.87535 7.49428 3.02183 7.50063C3.1683 7.50698 3.28869 7.56629 3.383 7.67855C3.4773 7.79081 3.51495 7.91962 3.49594 8.065C3.48124 8.17735 3.43384 8.27359 3.35371 8.35371C3.27359 8.43384 3.17735 8.48124 3.065 8.49594ZM3.065 5.99594C2.91962 6.01495 2.79081 5.9773 2.67855 5.883C2.56629 5.78869 2.50698 5.6683 2.50063 5.52183C2.49428 5.37535 2.54293 5.25028 2.64661 5.14661C2.75028 5.04294 2.87535 4.99428 3.02183 5.00063C3.1683 5.00698 3.28869 5.06629 3.383 5.17855C3.4773 5.29081 3.51495 5.41962 3.49594 5.565C3.48124 5.67735 3.43384 5.77359 3.35371 5.85371C3.27359 5.93384 3.17735 5.98124 3.065 5.99594ZM3.065 3.49594C2.91962 3.51495 2.79081 3.4773 2.67855 3.383C2.56629 3.28869 2.50698 3.1683 2.50063 3.02183C2.49428 2.87535 2.54294 2.75028 2.64661 2.64661C2.75028 2.54293 2.87535 2.49428 3.02183 2.50063C3.1683 2.50698 3.28869 2.56629 3.383 2.67855C3.4773 2.79081 3.51495 2.91962 3.49594 3.065C3.48124 3.17735 3.43384 3.27359 3.35371 3.35371C3.27359 3.43383 3.17735 3.48124 3.065 3.49594ZM5.565 10.9959C5.41962 11.0149 5.29081 10.9773 5.17855 10.883C5.06629 10.7887 5.00698 10.6683 5.00063 10.5218C4.99428 10.3754 5.04293 10.2503 5.14661 10.1466C5.25028 10.0429 5.37535 9.99428 5.52183 10.0006C5.6683 10.007 5.78869 10.0663 5.883 10.1785C5.9773 10.2908 6.01495 10.4196 5.99594 10.565C5.98124 10.6774 5.93384 10.7736 5.85371 10.8537C5.77359 10.9338 5.67735 10.9812 5.565 10.9959ZM5.565 8.49594C5.41962 8.51495 5.29081 8.4773 5.17855 8.383C5.06629 8.28869 5.00698 8.1683 5.00063 8.02183C4.99428 7.87535 5.04293 7.75028 5.14661 7.64661C5.25028 7.54293 5.37535 7.49428 5.52183 7.50063C5.6683 7.50698 5.78869 7.56629 5.883 7.67855C5.9773 7.79081 6.01495 7.91962 5.99594 8.065C5.98124 8.17735 5.93384 8.27359 5.85371 8.35371C5.77359 8.43384 5.67735 8.48124 5.565 8.49594ZM5.565 5.99594C5.41962 6.01495 5.29081 5.9773 5.17855 5.883C5.06629 5.78869 5.00698 5.6683 5.00063 5.52183C4.99428 5.37535 5.04293 5.25028 5.14661 5.14661C5.25028 5.04293 5.37535 4.99428 5.52183 5.00063C5.6683 5.00698 5.78869 5.06629 5.883 5.17855C5.9773 5.29081 6.01495 5.41962 5.99594 5.565C5.98124 5.67735 5.93384 5.77359 5.85371 5.85371C5.77359 5.93384 5.67735 5.98124 5.565 5.99594ZM5.565 3.49594C5.41962 3.51495 5.29081 3.4773 5.17855 3.383C5.06629 3.28869 5.00698 3.1683 5.00063 3.02183C4.99428 2.87535 5.04294 2.75028 5.14661 2.64661C5.25028 2.54293 5.37535 2.49428 5.52183 2.50063C5.6683 2.50698 5.78869 2.56629 5.883 2.67855C5.9773 2.79081 6.01495 2.91962 5.99594 3.065C5.98124 3.17735 5.93383 3.27359 5.85371 3.35371C5.77359 3.43383 5.67735 3.48124 5.565 3.49594ZM8.065 13.4959C7.91962 13.5149 7.79081 13.4773 7.67855 13.383C7.56629 13.2887 7.50698 13.1683 7.50063 13.0218C7.49428 12.8754 7.54294 12.7503 7.64661 12.6466C7.75028 12.5429 7.87535 12.4943 8.02183 12.5006C8.16831 12.507 8.2887 12.5663 8.383 12.6785C8.47731 12.7908 8.51495 12.9196 8.49594 13.065C8.48124 13.1774 8.43384 13.2736 8.35371 13.3537C8.27359 13.4338 8.17735 13.4812 8.065 13.4959ZM8.065 10.9959C7.91962 11.0149 7.79081 10.9773 7.67855 10.883C7.56629 10.7887 7.50698 10.6683 7.50063 10.5218C7.49428 10.3754 7.54294 10.2503 7.64661 10.1466C7.75028 10.0429 7.87535 9.99428 8.02183 10.0006C8.16831 10.007 8.2887 10.0663 8.383 10.1785C8.47731 10.2908 8.51495 10.4196 8.49594 10.565C8.48124 10.6774 8.43384 10.7736 8.35371 10.8537C8.27359 10.9338 8.17735 10.9812 8.065 10.9959ZM8.065 8.49594C7.91962 8.51495 7.79081 8.4773 7.67855 8.383C7.56629 8.28869 7.50698 8.1683 7.50063 8.02183C7.49428 7.87535 7.54294 7.75028 7.64661 7.64661C7.75028 7.54293 7.87535 7.49428 8.02183 7.50063C8.16831 7.50698 8.2887 7.56629 8.383 7.67855C8.47731 7.79081 8.51495 7.91962 8.49594 8.065C8.48124 8.17735 8.43384 8.27359 8.35371 8.35371C8.27359 8.43384 8.17735 8.48124 8.065 8.49594ZM8.065 5.99594C7.91962 6.01495 7.79081 5.9773 7.67855 5.883C7.56629 5.78869 7.50698 5.6683 7.50063 5.52183C7.49428 5.37535 7.54294 5.25028 7.64661 5.14661C7.75028 5.04293 7.87535 4.99428 8.02183 5.00063C8.16831 5.00698 8.2887 5.06629 8.383 5.17855C8.47731 5.29081 8.51495 5.41962 8.49594 5.565C8.48124 5.67735 8.43384 5.77359 8.35371 5.85371C8.27359 5.93384 8.17735 5.98124 8.065 5.99594ZM8.065 3.49594C7.91963 3.51495 7.79081 3.4773 7.67855 3.383C7.56629 3.28869 7.50698 3.1683 7.50063 3.02183C7.49428 2.87535 7.54294 2.75028 7.64661 2.64661C7.75028 2.54293 7.87535 2.49428 8.02183 2.50063C8.16831 2.50698 8.2887 2.56629 8.383 2.67855C8.47731 2.79081 8.51495 2.91962 8.49594 3.065C8.48124 3.17735 8.43384 3.27359 8.35371 3.35371C8.27359 3.43384 8.17735 3.48124 8.065 3.49594ZM13.875 14.5H10V6.5H13.5C13.6381 6.5 13.7559 6.54882 13.8536 6.64645C13.9512 6.74408 14 6.86193 14 7V14.375C14 14.4095 13.9878 14.439 13.9634 14.4634C13.939 14.4878 13.9095 14.5 13.875 14.5Z" fill="var(--fill-0, #FE9213)"/>
<path id="h31" d="M12.5 12.5C12.3619 12.5 12.2441 12.5488 12.1464 12.6464C12.0488 12.7441 12 12.8619 12 13C12 13.1381 12.0488 13.2559 12.1464 13.3536C12.2441 13.4512 12.3619 13.5 12.5 13.5C12.6381 13.5 12.7559 13.4512 12.8536 13.3536C12.9512 13.2559 13 13.1381 13 13C13 12.8619 12.9512 12.7441 12.8536 12.6464C12.7559 12.5488 12.6381 12.5 12.5 12.5ZM12.5 10C12.3619 10 12.2441 10.0488 12.1464 10.1464C12.0488 10.2441 12 10.3619 12 10.5C12 10.6381 12.0488 10.7559 12.1464 10.8536C12.2441 10.9512 12.3619 11 12.5 11C12.6381 11 12.7559 10.9512 12.8536 10.8536C12.9512 10.7559 13 10.6381 13 10.5C13 10.3619 12.9512 10.2441 12.8536 10.1464C12.7559 10.0488 12.6381 10 12.5 10ZM12.5 7.5C12.3619 7.5 12.2441 7.54882 12.1464 7.64645C12.0488 7.74408 12 7.86193 12 8C12 8.13807 12.0488 8.25592 12.1464 8.35355C12.2441 8.45118 12.3619 8.5 12.5 8.5C12.6381 8.5 12.7559 8.45118 12.8536 8.35355C12.9512 8.25592 13 8.13807 13 8C13 7.86193 12.9512 7.74408 12.8536 7.64645C12.7559 7.54882 12.6381 7.5 12.5 7.5ZM10.5 12.5C10.3619 12.5 10.2441 12.5488 10.1464 12.6464C10.0488 12.7441 10 12.8619 10 13C10 13.1381 10.0488 13.2559 10.1464 13.3536C10.2441 13.4512 10.3619 13.5 10.5 13.5C10.6381 13.5 10.7559 13.4512 10.8536 13.3536C10.9512 13.2559 11 13.1381 11 13C11 12.8619 10.9512 12.7441 10.8536 12.6464C10.7559 12.5488 10.6381 12.5 10.5 12.5ZM10.5 10C10.3619 10 10.2441 10.0488 10.1464 10.1464C10.0488 10.2441 10 10.3619 10 10.5C10 10.6381 10.0488 10.7559 10.1464 10.8536C10.2441 10.9512 10.3619 11 10.5 11C10.6381 11 10.7559 10.9512 10.8536 10.8536C10.9512 10.7559 11 10.6381 11 10.5C11 10.3619 10.9512 10.2441 10.8536 10.1464C10.7559 10.0488 10.6381 10 10.5 10ZM10.5 7.5C10.3619 7.5 10.2441 7.54882 10.1464 7.64645C10.0488 7.74408 10 7.86193 10 8C10 8.13807 10.0488 8.25592 10.1464 8.35355C10.2441 8.45118 10.3619 8.5 10.5 8.5C10.6381 8.5 10.7559 8.45118 10.8536 8.35355C10.9512 8.25592 11 8.13807 11 8C11 7.86193 10.9512 7.74408 10.8536 7.64645C10.7559 7.54882 10.6381 7.5 10.5 7.5Z" fill="var(--fill-0, #FE9213)"/>
</g>
</svg>
