<svg preserveAspectRatio="none" width="100%" height="100%" overflow="visible" style="display: block;" viewBox="0 0 16 16" fill="none" xmlns="http://www.w3.org/2000/svg">
<g id="SVG">
<path id="h37" d="M13.25 2.5H2.75C2.26697 2.50052 1.85467 2.67155 1.51311 3.01311C1.17155 3.35467 1.00052 3.76697 1 4.25V11.75C1.00052 12.233 1.17155 12.6453 1.51311 12.9869C1.85467 13.3284 2.26697 13.4995 2.75 13.5H13.25C13.733 13.4995 14.1453 13.3284 14.4869 12.9869C14.8284 12.6453 14.9995 12.233 15 11.75V4.25C14.9995 3.76696 14.8284 3.35467 14.4869 3.01311C14.1453 2.67155 13.733 2.50052 13.25 2.5ZM12.8069 5.39469L8.30688 8.89469C8.21662 8.96485 8.11432 8.99994 8 8.99994C7.88568 8.99994 7.78338 8.96485 7.69313 8.89469L3.19313 5.39469C3.08184 5.31065 3.01706 5.19951 2.99876 5.06127C2.98047 4.92303 3.01412 4.79886 3.09971 4.68877C3.18531 4.57868 3.29735 4.51547 3.43584 4.49912C3.57432 4.48278 3.698 4.51818 3.80688 4.60531L8 7.86656L12.1931 4.60531C12.3022 4.52293 12.4245 4.4907 12.56 4.50864C12.6956 4.52657 12.8053 4.58949 12.8892 4.69741C12.9731 4.80533 13.007 4.92717 12.991 5.06292C12.975 5.19868 12.9136 5.30927 12.8069 5.39469Z" fill="var(--fill-0, #FE9213)"/>
</g>
</svg>
