<svg preserveAspectRatio="none" width="100%" height="100%" overflow="visible" style="display: block;" viewBox="0 0 14 14" fill="none" xmlns="http://www.w3.org/2000/svg">
<g id="SVG">
<path id="h161" d="M10.9641 6.60625L3.92031 1.10469C3.90153 1.0899 3.88026 1.08124 3.85649 1.07871C3.83273 1.07617 3.81011 1.08015 3.78863 1.09063C3.76716 1.10112 3.75011 1.11652 3.7375 1.13682C3.72489 1.15712 3.71864 1.17922 3.71875 1.20312V2.41094C3.71875 2.4875 3.75469 2.56094 3.81406 2.60781L9.43906 7L3.81406 11.3922C3.75312 11.4391 3.71875 11.5125 3.71875 11.5891V12.7969C3.71875 12.9016 3.83906 12.9594 3.92031 12.8953L10.9641 7.39375C11.0922 7.29378 11.1563 7.16253 11.1563 7C11.1563 6.83747 11.0922 6.70622 10.9641 6.60625Z" fill="var(--fill-0, white)"/>
</g>
</svg>
