<svg preserveAspectRatio="none" width="100%" height="100%" overflow="visible" style="display: block;" viewBox="0 0 24 24" fill="none" xmlns="http://www.w3.org/2000/svg">
<g id="SVG">
<circle id="h123" cx="12" cy="9" r="1.5" fill="var(--fill-0, white)"/>
<path id="h124" d="M12 1.5C7.86469 1.5 4.5 4.71797 4.5 8.67188C4.5 10.5548 5.35828 13.0589 7.05094 16.1147C8.41031 18.5681 9.98297 20.7867 10.8009 21.8906C11.0982 22.2964 11.4984 22.4992 12.0014 22.4992C12.5044 22.4992 12.9046 22.2964 13.2019 21.8906C14.0184 20.7867 15.5925 18.5681 16.9519 16.1147C18.6417 13.0598 19.5 10.5558 19.5 8.67188C19.5 4.71797 16.1353 1.5 12 1.5ZM12 12C11.1716 12 10.4645 11.7071 9.87868 11.1213C9.29289 10.5355 9 9.82843 9 9C9 8.17157 9.29289 7.46447 9.87868 6.87868C10.4645 6.29289 11.1716 6 12 6C12.8284 6 13.5355 6.29289 14.1213 6.87868C14.7071 7.46447 15 8.17157 15 9C14.9991 9.82805 14.7059 10.5348 14.1204 11.1204C13.5348 11.7059 12.8281 11.9991 12 12Z" fill="var(--fill-0, white)"/>
</g>
</svg>
