<svg preserveAspectRatio="none" width="100%" height="100%" overflow="visible" style="display: block;" viewBox="0 0 14 16" fill="none" xmlns="http://www.w3.org/2000/svg">
<g id="Group 1">
<path id="Vector 1" d="M12.7607 3.96607C12.5926 3.57846 12.3885 3.21084 12.1485 2.86319C11.9084 2.51555 11.6369 2.19448 11.3339 1.9C11.03 1.60286 10.7005 1.33744 10.3455 1.10374C9.99041 0.87005 9.61633 0.672374 9.22321 0.510714C8.40536 0.171429 7.5375 0 6.64286 0C5.74821 0 4.88036 0.171429 4.0625 0.508929C3.27143 0.835714 2.5625 1.30357 1.95179 1.89821C1.64904 2.19286 1.37763 2.514 1.13757 2.86162C0.897508 3.20925 0.693317 3.5768 0.525 3.96429C0.176786 4.76786 0 5.62143 0 6.5C0 7.76072 0.301786 9.01607 0.894643 10.2268C1.37143 11.2 2.0375 12.1482 2.87679 13.05C4.31071 14.5893 5.81429 15.5304 6.24107 15.7821C6.30164 15.8179 6.36587 15.845 6.43374 15.8635C6.50162 15.882 6.57073 15.8912 6.64107 15.8911C6.78036 15.8911 6.91786 15.8554 7.04107 15.7821C7.46786 15.5304 8.97143 14.5893 10.4054 13.05C11.2446 12.15 11.9107 11.2 12.3875 10.2268C12.9839 9.01786 13.2857 7.76429 13.2857 6.50179C13.2857 5.62321 13.1089 4.76964 12.7607 3.96607ZM6.64286 14.5214C5.46607 13.7732 1.28571 10.8107 1.28571 6.50179C1.28571 5.11071 1.84107 3.80357 2.85 2.81786C3.8625 1.83036 5.20893 1.28571 6.64286 1.28571C8.07679 1.28571 9.42321 1.83036 10.4357 2.81964C11.4446 3.80357 12 5.11071 12 6.50179C12 10.8107 7.81964 13.7732 6.64286 14.5214ZM6.64286 3.5C4.90714 3.5 3.5 4.90714 3.5 6.64286C3.5 8.37857 4.90714 9.78572 6.64286 9.78572C8.37857 9.78572 9.78572 8.37857 9.78572 6.64286C9.78572 4.90714 8.37857 3.5 6.64286 3.5ZM8.05714 8.05714C7.86982 8.24501 7.65359 8.3897 7.40848 8.49121C7.16337 8.59272 6.90816 8.64327 6.64286 8.64286C6.10893 8.64286 5.60714 8.43393 5.22857 8.05714C5.04071 7.86982 4.89602 7.6536 4.79451 7.40848C4.69299 7.16337 4.64244 6.90816 4.64286 6.64286C4.64286 6.10893 4.85179 5.60714 5.22857 5.22857C5.60714 4.85 6.10893 4.64286 6.64286 4.64286C7.17679 4.64286 7.67857 4.85 8.05714 5.22857C8.43571 5.60714 8.64286 6.10893 8.64286 6.64286C8.64286 7.17679 8.43571 7.67857 8.05714 8.05714Z" fill="var(--fill-0, #FE9213)"/>
</g>
</svg>
