<svg width="14" height="15" viewBox="0 0 14 15" fill="none" xmlns="http://www.w3.org/2000/svg">
<path d="M12.5 5H9V1.5C9 1.08579 8.85355 0.732233 8.56066 0.43934C8.26777 0.146447 7.91421 0 7.5 0H1.5C1.08579 0 0.732233 0.146447 0.43934 0.43934C0.146447 0.732233 0 1.08579 0 1.5V14.5C-3.97364e-08 14.6381 0.0488154 14.7559 0.146446 14.8536C0.244078 14.9512 0.361929 15 0.5 15H3.75C3.81904 15 3.87796 14.9756 3.92678 14.9268C3.97559 14.878 4 14.819 4 14.75V12.5141C4 12.245 4.20687 12.0141 4.47594 12.0006C4.61856 11.9938 4.74155 12.0396 4.84492 12.1381C4.94829 12.2366 4.99999 12.3572 5 12.5V14.75C5 14.819 5.02441 14.878 5.07322 14.9268C5.12204 14.9756 5.18096 15 5.25 15H13.5C13.6381 15 13.7559 14.9512 13.8536 14.8536C13.9512 14.7559 14 14.6381 14 14.5V6.5C14 6.08579 13.8536 5.73223 13.5607 5.43934C13.2678 5.14645 12.9142 5 12.5 5ZM2.065 12.9959C1.91962 13.0149 1.79081 12.9773 1.67855 12.883C1.56629 12.7887 1.50698 12.6683 1.50063 12.5218C1.49428 12.3754 1.54293 12.2503 1.64661 12.1466C1.75028 12.0429 1.87535 11.9943 2.02183 12.0006C2.1683 12.007 2.28869 12.0663 2.383 12.1785C2.4773 12.2908 2.51495 12.4196 2.49594 12.565C2.48124 12.6774 2.43384 12.7736 2.35371 12.8537C2.27359 12.9338 2.17735 12.9812 2.065 12.9959ZM2.065 10.4959C1.91962 10.5149 1.79081 10.4773 1.67855 10.383C1.56629 10.2887 1.50698 10.1683 1.50063 10.0218C1.49428 9.87535 1.54293 9.75028 1.64661 9.64661C1.75028 9.54293 1.87535 9.49428 2.02183 9.50063C2.1683 9.50698 2.28869 9.56629 2.383 9.67855C2.4773 9.79081 2.51495 9.91962 2.49594 10.065C2.48124 10.1774 2.43384 10.2736 2.35371 10.3537C2.27359 10.4338 2.17735 10.4812 2.065 10.4959ZM2.065 7.99594C1.91962 8.01495 1.79081 7.9773 1.67855 7.883C1.56629 7.78869 1.50698 7.6683 1.50063 7.52183C1.49428 7.37535 1.54293 7.25028 1.64661 7.14661C1.75028 7.04293 1.87535 6.99428 2.02183 7.00063C2.1683 7.00698 2.28869 7.06629 2.383 7.17855C2.4773 7.29081 2.51495 7.41962 2.49594 7.565C2.48124 7.67735 2.43384 7.77359 2.35371 7.85371C2.27359 7.93384 2.17735 7.98124 2.065 7.99594ZM2.065 5.49594C1.91962 5.51495 1.79081 5.4773 1.67855 5.383C1.56629 5.28869 1.50698 5.1683 1.50063 5.02183C1.49428 4.87535 1.54293 4.75028 1.64661 4.64661C1.75028 4.54293 1.87535 4.49428 2.02183 4.50063C2.1683 4.50698 2.28869 4.56629 2.383 4.67855C2.4773 4.79081 2.51495 4.91962 2.49594 5.065C2.48124 5.17735 2.43384 5.27359 2.35371 5.35371C2.27359 5.43384 2.17735 5.48124 2.065 5.49594ZM2.065 2.99594C1.91962 3.01495 1.79081 2.9773 1.67855 2.883C1.56629 2.78869 1.50698 2.6683 1.50063 2.52183C1.49428 2.37535 1.54294 2.25028 1.64661 2.14661C1.75028 2.04293 1.87535 1.99428 2.02183 2.00063C2.1683 2.00698 2.28869 2.06629 2.383 2.17855C2.4773 2.29081 2.51495 2.41962 2.49594 2.565C2.48124 2.67735 2.43384 2.77359 2.35371 2.85371C2.27359 2.93383 2.17735 2.98124 2.065 2.99594ZM4.565 10.4959C4.41962 10.5149 4.29081 10.4773 4.17855 10.383C4.06629 10.2887 4.00698 10.1683 4.00063 10.0218C3.99428 9.87535 4.04293 9.75028 4.14661 9.64661C4.25028 9.54293 4.37535 9.49428 4.52183 9.50063C4.6683 9.50698 4.78869 9.56629 4.883 9.67855C4.9773 9.79081 5.01495 9.91962 4.99594 10.065C4.98124 10.1774 4.93384 10.2736 4.85371 10.3537C4.77359 10.4338 4.67735 10.4812 4.565 10.4959ZM4.565 7.99594C4.41962 8.01495 4.29081 7.9773 4.17855 7.883C4.06629 7.78869 4.00698 7.6683 4.00063 7.52183C3.99428 7.37535 4.04293 7.25028 4.14661 7.14661C4.25028 7.04293 4.37535 6.99428 4.52183 7.00063C4.6683 7.00698 4.78869 7.06629 4.883 7.17855C4.9773 7.29081 5.01495 7.41962 4.99594 7.565C4.98124 7.67735 4.93384 7.77359 4.85371 7.85371C4.77359 7.93384 4.67735 7.98124 4.565 7.99594ZM4.565 5.49594C4.41962 5.51495 4.29081 5.4773 4.17855 5.383C4.06629 5.28869 4.00698 5.1683 4.00063 5.02183C3.99428 4.87535 4.04293 4.75028 4.14661 4.64661C4.25028 4.54293 4.37535 4.49428 4.52183 4.50063C4.6683 4.50698 4.78869 4.56629 4.883 4.67855C4.9773 4.79081 5.01495 4.91962 4.99594 5.065C4.98124 5.17735 4.93384 5.27359 4.85371 5.35371C4.77359 5.43384 4.67735 5.48124 4.565 5.49594ZM4.565 2.99594C4.41962 3.01495 4.29081 2.9773 4.17855 2.883C4.06629 2.78869 4.00698 2.6683 4.00063 2.52183C3.99428 2.37535 4.04293 2.25028 4.14661 2.14661C4.25028 2.04293 4.37535 1.99428 4.52183 2.00063C4.6683 2.00698 4.78869 2.06629 4.883 2.17855C4.9773 2.29081 5.01495 2.41962 4.99594 2.565C4.98124 2.67735 4.93384 2.77359 4.85371 2.85371C4.77359 2.93383 4.67735 2.98124 4.565 2.99594ZM7.065 12.9959C6.91962 13.0149 6.79081 12.9773 6.67855 12.883C6.56629 12.7887 6.50698 12.6683 6.50063 12.5218C6.49428 12.3753 6.54294 12.2503 6.64661 12.1466C6.75028 12.0429 6.87535 11.9943 7.02183 12.0006C7.1683 12.007 7.2887 12.0663 7.383 12.1785C7.47731 12.2908 7.51495 12.4196 7.49594 12.565C7.48124 12.6774 7.43384 12.7736 7.35371 12.8537C7.27359 12.9338 7.17735 12.9812 7.065 12.9959ZM7.065 10.4959C6.91962 10.5149 6.79081 10.4773 6.67855 10.383C6.56629 10.2887 6.50698 10.1683 6.50063 10.0218C6.49428 9.87535 6.54294 9.75028 6.64661 9.64661C6.75028 9.54293 6.87535 9.49428 7.02183 9.50063C7.1683 9.50698 7.2887 9.56629 7.383 9.67855C7.47731 9.79081 7.51495 9.91962 7.49594 10.065C7.48124 10.1774 7.43384 10.2736 7.35371 10.3537C7.27359 10.4338 7.17735 10.4812 7.065 10.4959ZM7.065 7.99594C6.91962 8.01495 6.79081 7.9773 6.67855 7.883C6.56629 7.78869 6.50698 7.6683 6.50063 7.52183C6.49428 7.37535 6.54294 7.25028 6.64661 7.14661C6.75028 7.04293 6.87535 6.99428 7.02183 7.00063C7.1683 7.00698 7.2887 7.06629 7.383 7.17855C7.47731 7.29081 7.51495 7.41962 7.49594 7.565C7.48124 7.67735 7.43384 7.77359 7.35371 7.85371C7.27359 7.93384 7.17735 7.98124 7.065 7.99594ZM7.065 5.49594C6.91962 5.51495 6.79081 5.4773 6.67855 5.383C6.56629 5.28869 6.50698 5.1683 6.50063 5.02183C6.49428 4.87535 6.54294 4.75028 6.64661 4.64661C6.75028 4.54293 6.87535 4.49428 7.02183 4.50063C7.1683 4.50698 7.2887 4.56629 7.383 4.67855C7.47731 4.79081 7.51495 4.91962 7.49594 5.065C7.48124 5.17735 7.43384 5.27359 7.35371 5.35371C7.27359 5.43384 7.17735 5.48124 7.065 5.49594ZM7.065 2.99594C6.91963 3.01495 6.79081 2.9773 6.67855 2.883C6.56629 2.78869 6.50698 2.6683 6.50063 2.52183C6.49428 2.37535 6.54294 2.25028 6.64661 2.14661C6.75028 2.04293 6.87535 1.99428 7.02183 2.00063C7.16831 2.00698 7.2887 2.06629 7.383 2.17855C7.47731 2.29081 7.51495 2.41962 7.49594 2.565C7.48124 2.67735 7.43384 2.77359 7.35371 2.85371C7.27359 2.93384 7.17735 2.98124 7.065 2.99594ZM12.875 14H9V6H12.5C12.6381 6 12.7559 6.04882 12.8536 6.14645C12.9512 6.24408 13 6.36193 13 6.5V13.875C13 13.9095 12.9878 13.939 12.9634 13.9634C12.939 13.9878 12.9095 14 12.875 14Z" fill="#FE9213"/>
</svg>
