<svg width="25" height="24" viewBox="0 0 25 24" fill="none" xmlns="http://www.w3.org/2000/svg">
<circle cx="12.6875" cy="9" r="1.5" fill="#fe9213"/>
<path d="M12.6875 1.5C8.55219 1.5 5.1875 4.71797 5.1875 8.67188C5.1875 10.5548 6.04578 13.0589 7.73844 16.1147C9.09781 18.5681 10.6705 20.7867 11.4884 21.8906C11.7857 22.2964 12.1859 22.4992 12.6889 22.4992C13.1919 22.4992 13.5921 22.2964 13.8894 21.8906C14.7059 20.7867 16.28 18.5681 17.6394 16.1147C19.3292 13.0598 20.1875 10.5558 20.1875 8.67188C20.1875 4.71797 16.8228 1.5 12.6875 1.5ZM12.6875 12C11.8591 12 11.152 11.7071 10.5662 11.1213C9.98039 10.5355 9.6875 9.82843 9.6875 9C9.6875 8.17157 9.98039 7.46447 10.5662 6.87868C11.152 6.29289 11.8591 6 12.6875 6C13.5159 6 14.223 6.29289 14.8088 6.87868C15.3946 7.46447 15.6875 8.17157 15.6875 9C15.6866 9.82805 15.3934 10.5348 14.8079 11.1204C14.2223 11.7059 13.5156 11.9991 12.6875 12Z" fill="#fe9213"/>
</svg>
