<svg width="21" height="17" viewBox="0 0 21 17" fill="none" xmlns="http://www.w3.org/2000/svg">
<path d="M18.375 0H2.625C1.90045 0.000775337 1.282 0.257331 0.769667 0.769667C0.257331 1.282 0.000775099 1.90045 0 2.625V13.875C0.000775099 14.5996 0.257331 15.218 0.769667 15.7303C1.282 16.2427 1.90045 16.4992 2.625 16.5H18.375C19.0996 16.4992 19.718 16.2427 20.2303 15.7303C20.7427 15.218 20.9992 14.5996 21 13.875V2.625C20.9992 1.90045 20.7427 1.282 20.2303 0.769667C19.718 0.25733 19.0996 0.00077486 18.375 0ZM17.7103 4.34203L10.9603 9.59203C10.8249 9.69728 10.6715 9.74991 10.5 9.74991C10.3285 9.74991 10.1751 9.69728 10.0397 9.59203L3.28969 4.34203C3.12276 4.21598 3.02558 4.04927 2.99814 3.8419C2.9707 3.63454 3.02118 3.44829 3.14957 3.28316C3.27796 3.11803 3.44603 3.0232 3.65376 2.99869C3.86149 2.97417 4.04701 3.02726 4.21031 3.15797L10.5 8.04984L16.7897 3.15797C16.9533 3.0344 17.1368 2.98606 17.3401 3.01295C17.5433 3.03985 17.7079 3.13424 17.8338 3.29611C17.9596 3.45799 18.0105 3.64075 17.9865 3.84439C17.9625 4.04802 17.8704 4.21391 17.7103 4.34203Z" fill="#fe9213"/>
</svg>
