<svg width="21" height="21" viewBox="0 0 21 21" fill="none" xmlns="http://www.w3.org/2000/svg">
<path d="M16.8239 21.0001C15.9089 21.0001 14.6235 20.6691 12.6988 19.5938C10.3583 18.2812 8.54794 17.0695 6.22007 14.7477C3.97565 12.5047 2.88343 11.0525 1.3548 8.27085C-0.372112 5.13015 -0.07773 3.48386 0.25134 2.78025C0.643224 1.9393 1.22168 1.43632 1.96935 0.937087C2.18169 0.797967 2.39997 0.668905 2.6242 0.5499C2.84843 0.430895 3.07766 0.322452 3.31188 0.22457C3.35876 0.204414 3.40235 0.185194 3.44126 0.16785C3.67329 0.0633166 4.02487 -0.0946558 4.47019 0.0740981C4.76738 0.185663 5.0327 0.41395 5.44802 0.824116C6.29976 1.66414 7.4637 3.53496 7.89308 4.45373C8.18137 5.07296 8.37215 5.48172 8.37262 5.94017C8.37262 6.4769 8.10262 6.89082 7.77495 7.33755C7.71354 7.42146 7.65261 7.50161 7.59354 7.57943C7.23682 8.04819 7.15853 8.18366 7.2101 8.42554C7.31463 8.91165 8.09418 10.3587 9.3753 11.637C10.6564 12.9153 12.0618 13.6457 12.5498 13.7497C12.8019 13.8036 12.9402 13.7221 13.424 13.3527C13.4934 13.2997 13.5646 13.2449 13.6392 13.19C14.1388 12.8183 14.5335 12.5553 15.0576 12.5553H15.0604C15.5165 12.5553 15.907 12.7531 16.5539 13.0794C17.3977 13.505 19.3248 14.654 20.1699 15.5066C20.581 15.921 20.8103 16.1854 20.9223 16.4821C21.091 16.9289 20.9321 17.279 20.8285 17.5134C20.8112 17.5523 20.792 17.595 20.7718 17.6423C20.6732 17.8761 20.564 18.1049 20.4443 18.3287C20.3246 18.5524 20.1948 18.7702 20.0551 18.982C19.5568 19.7274 19.0519 20.3044 18.2091 20.6968C17.9927 20.7991 17.7676 20.8759 17.5337 20.9271C17.2999 20.9783 17.0633 21.0026 16.8239 21.0001Z" fill="#fe9213"/>
</svg>
