<svg preserveAspectRatio="none" width="100%" height="100%" overflow="visible" style="display: block;" viewBox="0 0 18 18" fill="none" xmlns="http://www.w3.org/2000/svg">
<g id="Group 1">
<path id="Vector 1" d="M16.4219 0H1.43527C0.642857 0 0 0.642857 0 1.43527V16.4219C0 17.2143 0.642857 17.8571 1.43527 17.8571H16.4219C17.2143 17.8571 17.8571 17.2143 17.8571 16.4219V1.43527C17.8571 0.642857 17.2143 0 16.4219 0ZM16.4219 16.4286C6.42634 16.4263 1.42857 16.4219 1.42857 16.4219C1.4308 6.42634 1.43527 1.42857 1.43527 1.42857C11.4308 1.4308 16.4286 1.43527 16.4286 1.43527C16.4263 11.4308 16.4219 16.4286 16.4219 16.4286ZM2.64732 6.6942H5.29688V15.2165H2.64732V6.6942ZM3.97321 5.52902C4.8192 5.52902 5.50893 4.84152 5.50893 3.9933C5.50893 3.56923 5.35899 3.20726 5.05913 2.90739C4.75926 2.60752 4.39729 2.45759 3.97321 2.45759C3.54914 2.45759 3.18717 2.60752 2.8873 2.90739C2.58743 3.20726 2.4375 3.56923 2.4375 3.9933C2.43527 4.84152 3.12277 5.52902 3.97321 5.52902ZM9.60491 11C9.60491 9.88839 9.81696 8.8125 11.1942 8.8125C12.5513 8.8125 12.5714 10.0826 12.5714 11.0714V15.2165H15.2188V10.5424C15.2188 8.24777 14.7232 6.48214 12.0424 6.48214C10.7545 6.48214 9.89062 7.18973 9.53572 7.85938H9.5V6.6942H6.95759V15.2165H9.60491V11Z" fill="var(--fill-0, #FE9213)"/>
</g>
</svg>
