<svg width="18" height="18" viewBox="0 0 18 18" fill="none" xmlns="http://www.w3.org/2000/svg">
<path d="M16.8346 13.7402C16.1966 13.0974 14.6513 12.1592 13.9016 11.7812C12.9253 11.2894 12.845 11.2492 12.0776 11.8193C11.5657 12.1998 11.2254 12.5397 10.6264 12.412C10.0273 12.2842 8.72557 11.5638 7.58573 10.4276C6.4459 9.29137 5.68373 7.95185 5.55557 7.35482C5.4274 6.75778 5.77293 6.42149 6.14979 5.90843C6.68094 5.18523 6.64076 5.0647 6.18675 4.08839C5.83279 3.32903 4.86733 1.79827 4.22208 1.16347C3.53183 0.481659 3.53183 0.602192 3.08706 0.787008C2.90602 0.863182 2.72883 0.94747 2.5555 1.03987C2.38218 1.13227 2.21344 1.2324 2.04928 1.34025C1.40644 1.76734 1.04966 2.1221 0.800163 2.65526C0.550661 3.18841 0.438566 4.43833 1.72706 6.77907C3.01555 9.11981 3.91954 10.3167 5.7906 12.1825C7.66167 14.0484 9.10042 15.0516 11.2037 16.2312C13.8056 17.6885 14.8036 17.4044 15.3384 17.1553C15.8731 16.9062 16.2295 16.5526 16.6574 15.9098C16.7655 15.7459 16.8659 15.5774 16.9585 15.4043C17.0511 15.2312 17.1356 15.0541 17.2118 14.8732C17.3971 14.4301 17.5176 14.4301 16.8346 13.7402Z" stroke="#FE9213" stroke-width="1.25"/>
</svg>
