<svg width="13" height="14" viewBox="0 0 13 14" fill="none" xmlns="http://www.w3.org/2000/svg">
<path d="M8.89494 1.0181C8.28683 0.361553 7.43748 0 6.5 0C5.55753 0 4.70536 0.359365 4.10007 1.01185C3.48821 1.67152 3.19009 2.56806 3.26009 3.53615C3.39884 5.4461 4.85224 6.99981 6.5 6.99981C8.14777 6.99981 9.59867 5.44642 9.7396 3.53678C9.81054 2.57743 9.51055 1.68277 8.89494 1.0181ZM11.9999 13.9996H1.00015C0.854364 14.0015 0.715239 13.972 0.582777 13.9111C0.450315 13.8502 0.337363 13.7637 0.243922 13.6518C0.0408026 13.409 -0.0410702 13.0775 0.0195531 12.7422C0.283296 11.2791 1.1064 10.05 2.40011 9.18725C3.54946 8.42133 5.00536 7.99978 6.5 7.99978C7.99465 7.99978 9.45055 8.42165 10.5999 9.18725C11.8936 10.0497 12.7167 11.2788 12.9805 12.7418C13.0411 13.0771 12.9592 13.4087 12.7561 13.6515C12.6627 13.7635 12.5497 13.85 12.4173 13.9109C12.2848 13.9719 12.1457 14.0015 11.9999 13.9996Z" fill="#FE9213"/>
</svg>
