<svg width="15" height="9" viewBox="0 0 15 9" fill="none" xmlns="http://www.w3.org/2000/svg">
<path d="M14 8.51219C13.93 8.51214 13.8608 8.50482 13.7923 8.49023C13.7239 8.47565 13.6577 8.45411 13.5938 8.42563C13.5789 8.41902 13.5644 8.4117 13.5502 8.40366C13.5361 8.39562 13.5223 8.3869 13.5091 8.3775L10.9244 6.55813C10.7914 6.4645 10.6874 6.3455 10.6125 6.20114C10.5375 6.05678 10.5 5.90328 10.5 5.74063V3.25938C10.5 3.09672 10.5375 2.94322 10.6125 2.79886C10.6874 2.6545 10.7914 2.5355 10.9244 2.44188L13.5091 0.6225C13.5223 0.613101 13.5361 0.604381 13.5502 0.596341C13.5644 0.5883 13.5789 0.580979 13.5937 0.574376C13.9244 0.427376 14.2414 0.452455 14.5449 0.649613C14.8483 0.846772 15 1.12628 15 1.48813V7.51188C15 7.78802 14.9024 8.02372 14.7071 8.21898C14.5118 8.41424 14.2761 8.51188 14 8.51188L14 8.51219ZM7.875 9H2.125C1.53845 8.9994 1.03779 8.79172 0.623038 8.37696C0.208282 7.96221 0.000602961 7.46155 0 6.875V2.125C0.000603 1.53845 0.208282 1.03779 0.623038 0.623038C1.03779 0.208282 1.53845 0.000602881 2.125 0H7.89C8.47237 0.000688553 8.96946 0.206934 9.38126 0.618735C9.79307 1.03054 9.99931 1.52763 10 2.11V6.875C9.9994 7.46155 9.79172 7.96221 9.37696 8.37696C8.96221 8.79172 8.46155 8.9994 7.875 9Z" fill="#FE9213"/>
</svg>
