<svg preserveAspectRatio="none" width="100%" height="100%" overflow="visible" style="display: block;" viewBox="0 0 20 20" fill="none" xmlns="http://www.w3.org/2000/svg">
<g id="SVG">
<path id="h219" d="M17.8571 15C17.8571 12.5089 16.3973 10.3571 14.2857 9.35491V5.65402C14.2857 5.31696 14.1674 4.99107 13.9487 4.73437L10.5469 0.700893C10.404 0.53125 10.2009 0.446429 10 0.446429C9.79911 0.446429 9.59598 0.53125 9.45313 0.700893L6.05134 4.73438C5.94271 4.86299 5.85943 5.00632 5.80149 5.16439C5.74356 5.32246 5.71449 5.48567 5.71429 5.65402V9.35491C3.60268 10.3571 2.14286 12.5089 2.14286 15H5.63616C5.58482 15.1607 5.55804 15.3348 5.55804 15.5313C5.55804 16.0246 5.72768 16.5067 6.03571 16.8884C6.16143 17.0445 6.306 17.1805 6.46942 17.2966C6.63284 17.4126 6.80896 17.5042 6.99777 17.5714C7.51339 18.7768 8.68527 19.5536 10 19.5536C10.6496 19.5536 11.279 19.3616 11.817 19C12.3438 18.6473 12.7522 18.154 13 17.5714C13.1887 17.5046 13.3648 17.4134 13.5282 17.2977C13.6917 17.1821 13.8363 17.0464 13.9621 16.8906C14.1163 16.698 14.2343 16.4854 14.3163 16.2527C14.3982 16.0199 14.4393 15.7802 14.4397 15.5335C14.4397 15.346 14.4152 15.1674 14.3705 15.0022H17.8571V15ZM15.5871 12.442C15.7969 12.7679 15.9665 13.1183 16.0893 13.4821H14.1964V11.0424C14.4749 11.2241 14.7313 11.4329 14.9656 11.6688C15.2 11.9046 15.4071 12.1624 15.5871 12.442ZM7.23214 9.35491V5.6875L10 2.40625L12.7679 5.6875V13.4821H7.23214V9.35491ZM3.91071 13.4821C4.03348 13.1183 4.20313 12.7679 4.41295 12.442C4.77679 11.8795 5.25 11.404 5.80357 11.0424V13.4821H3.91071ZM12.5915 16.0759C12.4754 16.1429 12.3415 16.1696 12.2098 16.1518L11.7746 16.0982L11.7121 16.5313C11.5915 17.3772 10.8549 18.0156 10 18.0156C9.14509 18.0156 8.40848 17.3772 8.28795 16.5313L8.22545 16.096L7.79018 16.1518C7.72402 16.1597 7.65829 16.1569 7.59302 16.1436C7.52774 16.1302 7.46623 16.1069 7.40848 16.0737C7.21429 15.9621 7.09375 15.7545 7.09375 15.529C7.09375 15.2924 7.22545 15.096 7.41964 14.9978H12.5826C12.779 15.0982 12.9085 15.2946 12.9085 15.529C12.9063 15.7567 12.7857 15.9665 12.5915 16.0759ZM8.92857 7.5C8.92857 7.79587 9.03318 8.0484 9.24239 8.25761C9.45159 8.46682 9.70413 8.57143 10 8.57143C10.2959 8.57143 10.5484 8.46682 10.7576 8.25761C10.9668 8.0484 11.0714 7.79587 11.0714 7.5C11.0714 7.20413 10.9668 6.95159 10.7576 6.74238C10.5484 6.53318 10.2959 6.42857 10 6.42857C9.70413 6.42857 9.45159 6.53318 9.24239 6.74238C9.03318 6.95159 8.92857 7.20413 8.92857 7.5Z" fill="var(--fill-0, #025CCD)"/>
</g>
</svg>
