<svg preserveAspectRatio="none" width="100%" height="100%" overflow="visible" style="display: block;" viewBox="0 0 20 20" fill="none" xmlns="http://www.w3.org/2000/svg">
<g id="SVG">
<path id="h203" d="M18.3929 16.25H3.03571V2.32143C3.03571 2.22321 2.95536 2.14286 2.85714 2.14286H1.60714C1.50893 2.14286 1.42857 2.22321 1.42857 2.32143V17.6786C1.42857 17.7768 1.50893 17.8571 1.60714 17.8571H18.3929C18.4911 17.8571 18.5714 17.7768 18.5714 17.6786V16.4286C18.5714 16.3304 18.4911 16.25 18.3929 16.25ZM5 14.4643H6.25C6.34821 14.4643 6.42857 14.3839 6.42857 14.2857V11.0714C6.42857 10.9732 6.34821 10.8929 6.25 10.8929H5C4.90179 10.8929 4.82143 10.9732 4.82143 11.0714V14.2857C4.82143 14.3839 4.90179 14.4643 5 14.4643ZM8.39286 14.4643H9.64286C9.74107 14.4643 9.82143 14.3839 9.82143 14.2857V7.14286C9.82143 7.04464 9.74107 6.96429 9.64286 6.96429H8.39286C8.29464 6.96429 8.21429 7.04464 8.21429 7.14286V14.2857C8.21429 14.3839 8.29464 14.4643 8.39286 14.4643ZM11.7857 14.4643H13.0357C13.1339 14.4643 13.2143 14.3839 13.2143 14.2857V8.88393C13.2143 8.78571 13.1339 8.70536 13.0357 8.70536H11.7857C11.6875 8.70536 11.6071 8.78571 11.6071 8.88393V14.2857C11.6071 14.3839 11.6875 14.4643 11.7857 14.4643ZM15.1786 14.4643H16.4286C16.5268 14.4643 16.6071 14.3839 16.6071 14.2857V5.35714C16.6071 5.25893 16.5268 5.17857 16.4286 5.17857H15.1786C15.0804 5.17857 15 5.25893 15 5.35714V14.2857C15 14.3839 15.0804 14.4643 15.1786 14.4643Z" fill="var(--fill-0, #025CCD)"/>
</g>
</svg>
