<svg preserveAspectRatio="none" width="100%" height="100%" overflow="visible" style="display: block;" viewBox="0 0 48 48" fill="none" xmlns="http://www.w3.org/2000/svg">
<g id="SVG">
<path id="h65" d="M42.7518 12C41.431 12.0003 40.3986 12.5461 39.6545 13.6374C38.9104 14.7286 38.7794 15.8891 39.2615 17.1188L31.3705 25.0097C30.9307 24.8366 30.4745 24.75 30.0018 24.75C29.5291 24.75 29.0729 24.8366 28.633 25.0097L22.9921 19.3688C23.4753 18.1387 23.3448 16.9777 22.6005 15.8856C21.8563 14.7936 20.8234 14.2475 19.5018 14.2475C18.1802 14.2475 17.1473 14.7936 16.403 15.8856C15.6588 16.9777 15.5282 18.1387 16.0115 19.3688L6.62055 28.7597C5.48192 28.313 4.38687 28.4021 3.33541 29.0269C2.28394 29.6518 1.6822 30.571 1.53018 31.7846C1.37816 32.9982 1.73459 34.0375 2.59945 34.9023C3.46432 35.7672 4.50356 36.1236 5.71719 35.9716C6.93081 35.8196 7.85003 35.2179 8.47486 34.1664C9.09969 33.1149 9.18877 32.0199 8.74211 30.8812L18.133 21.4903C18.5729 21.6634 19.0291 21.75 19.5018 21.75C19.9745 21.75 20.4307 21.6634 20.8705 21.4903L26.5115 27.1312C26.0283 28.3613 26.1588 29.5223 26.903 30.6144C27.6473 31.7064 28.6802 32.2525 30.0018 32.2525C31.3234 32.2525 32.3563 31.7064 33.1005 30.6144C33.8448 29.5223 33.9753 28.3613 33.4921 27.1312L41.383 19.2403C42.4773 19.6702 43.5389 19.6008 44.5679 19.0322C45.5969 18.4637 46.2206 17.6018 46.439 16.4466C46.6574 15.2914 46.3913 14.2613 45.6409 13.3563C44.8905 12.4513 43.9274 11.9992 42.7518 12Z" fill="var(--fill-0, #FE9213)"/>
</g>
</svg>
