<svg preserveAspectRatio="none" width="100%" height="100%" overflow="visible" style="display: block;" viewBox="0 0 32 29" fill="none" xmlns="http://www.w3.org/2000/svg">
<g id="SVG" clip-path="url(#clip0_663_389)">
<path id="h116" d="M30.3453 2.05928C30.0342 1.442 29.1453 1.41731 28.7731 2.00002C27.0509 4.66175 23.9675 6.32101 20.4453 6.32101H16.0009C10.112 6.32101 5.3342 10.5679 5.3342 15.8025C5.3342 16.1482 5.37864 16.479 5.41753 16.8148C8.96198 14.558 14.0786 12.642 21.3342 12.642C21.8231 12.642 22.2231 12.9976 22.2231 13.4321C22.2231 13.8667 21.8231 14.2222 21.3342 14.2222C7.36753 14.2222 1.44531 21.8321 0.1342 24.6914C-0.232467 25.4963 0.200867 26.4148 1.10642 26.7457C2.01753 27.0815 3.05087 26.6914 3.42864 25.8914C3.51198 25.7136 4.58976 23.5259 7.42309 21.4173C9.22309 23.5852 12.6453 25.6543 17.1398 25.2297C25.862 24.6667 32.0009 17.7136 32.0009 9.20002C32.0009 6.72101 31.4009 4.15311 30.3453 2.05928Z" fill="var(--fill-0, #FA8C16)"/>
</g>
<defs>
<clipPath id="clip0_663_389">
<rect width="32" height="28.4444" fill="white"/>
</clipPath>
</defs>
</svg>
