<svg preserveAspectRatio="none" width="100%" height="100%" overflow="visible" style="display: block;" viewBox="0 0 16 16" fill="none" xmlns="http://www.w3.org/2000/svg">
<g id="SVG">
<path id="h227" d="M14.7143 13H2.42857V1.85714C2.42857 1.77857 2.36429 1.71429 2.28571 1.71429H1.28571C1.20714 1.71429 1.14286 1.77857 1.14286 1.85714V14.1429C1.14286 14.2214 1.20714 14.2857 1.28571 14.2857H14.7143C14.7929 14.2857 14.8571 14.2214 14.8571 14.1429V13.1429C14.8571 13.0643 14.7929 13 14.7143 13ZM4 11.5714H5C5.07857 11.5714 5.14286 11.5071 5.14286 11.4286V8.85714C5.14286 8.77857 5.07857 8.71429 5 8.71429H4C3.92143 8.71429 3.85714 8.77857 3.85714 8.85714V11.4286C3.85714 11.5071 3.92143 11.5714 4 11.5714ZM6.71429 11.5714H7.71429C7.79286 11.5714 7.85714 11.5071 7.85714 11.4286V5.71429C7.85714 5.63571 7.79286 5.57143 7.71429 5.57143H6.71429C6.63571 5.57143 6.57143 5.63571 6.57143 5.71429V11.4286C6.57143 11.5071 6.63571 11.5714 6.71429 11.5714ZM9.42857 11.5714H10.4286C10.5071 11.5714 10.5714 11.5071 10.5714 11.4286V7.10714C10.5714 7.02857 10.5071 6.96429 10.4286 6.96429H9.42857C9.35 6.96429 9.28571 7.02857 9.28571 7.10714V11.4286C9.28571 11.5071 9.35 11.5714 9.42857 11.5714ZM12.1429 11.5714H13.1429C13.2214 11.5714 13.2857 11.5071 13.2857 11.4286V4.28571C13.2857 4.20714 13.2214 4.14286 13.1429 4.14286H12.1429C12.0643 4.14286 12 4.20714 12 4.28571V11.4286C12 11.5071 12.0643 11.5714 12.1429 11.5714Z" fill="var(--fill-0, white)"/>
</g>
</svg>
