<svg preserveAspectRatio="none" width="100%" height="100%" overflow="visible" style="display: block;" viewBox="0 0 160 160" fill="none" xmlns="http://www.w3.org/2000/svg">
<g id="SVG">
<path id="h416" d="M98.5219 10.3125L30 95H70L60.1531 149.134C60.1132 149.361 60.1672 149.561 60.315 149.737C60.4629 149.913 60.6516 150.001 60.8813 150C60.9976 150 61.1077 149.974 61.2117 149.921C61.3156 149.869 61.4024 149.796 61.4719 149.703L130 65H90L99.8938 10.8594C99.922 10.6306 99.8596 10.4299 99.7066 10.2575C99.5536 10.085 99.3618 9.9992 99.1313 10C99.0106 10.0005 98.8965 10.0283 98.7892 10.0833C98.6818 10.1384 98.5927 10.2148 98.5219 10.3125Z" stroke="var(--stroke-0, #FA8C16)" stroke-width="10" stroke-linejoin="round"/>
</g>
</svg>
