<svg preserveAspectRatio="none" width="100%" height="100%" overflow="visible" style="display: block;" viewBox="0 0 40 40" fill="none" xmlns="http://www.w3.org/2000/svg">
<g id="SVG" clip-path="url(#clip0_663_419)">
<path id="h70" d="M39.4625 1.4917C39.3696 1.05957 38.9423 0.632324 38.5088 0.539551C35.9934 0 34.024 0 32.0631 0C23.9981 0 19.1616 4.31274 15.551 10H7.4092C6.13204 10.0012 4.63134 10.9277 4.05868 12.0691L0.196533 19.7888C0.136856 19.9205 0.0904834 20.0566 0.0574152 20.1973C0.024347 20.338 0.0052086 20.4806 0 20.625C0.000187638 21.1428 0.183366 21.5847 0.549535 21.9508C0.915704 22.3169 1.35768 22.4999 1.87545 22.5H9.98564L8.22981 24.2554C7.34191 25.143 7.21449 26.7755 8.22981 27.7905L12.2067 31.7676C13.0783 32.6416 14.7189 32.7954 15.744 31.7676L17.4998 30.0122V38.125C17.5 38.6428 17.6832 39.0847 18.0493 39.4508C18.4155 39.8169 18.8575 39.9999 19.3753 40C19.5197 39.9947 19.6623 39.9754 19.8031 39.9424C19.9438 39.9093 20.08 39.863 20.2118 39.8035L27.9249 35.9448C29.0678 35.3748 29.9958 33.8745 29.9958 32.5964V24.4373C35.6675 20.8191 39.9986 15.968 39.9986 7.94556C40.0059 5.97656 40.0059 4.00757 39.4625 1.4917ZM30.0032 13.125C29.1403 13.1248 28.4038 12.8195 27.7938 12.2093C27.1837 11.599 26.8788 10.8624 26.8789 9.9995C26.879 9.1366 27.1842 8.40011 27.7945 7.79003C28.4047 7.17994 29.1413 6.87493 30.0042 6.875C30.8671 6.87507 31.6036 7.1802 32.2137 7.79038C32.8238 8.40056 33.1289 9.1371 33.1289 10C33.1284 10.8629 32.823 11.5994 32.2128 12.2094C31.6026 12.8195 30.866 13.1247 30.0032 13.125Z" fill="var(--fill-0, #FA8C16)"/>
</g>
<defs>
<clipPath id="clip0_663_419">
<rect width="40" height="40" fill="white"/>
</clipPath>
</defs>
</svg>
