<svg preserveAspectRatio="none" width="100%" height="100%" overflow="visible" style="display: block;" viewBox="0 0 20 20" fill="none" xmlns="http://www.w3.org/2000/svg">
<g id="SVG" clip-path="url(#clip0_733_12)">
<path id="h43" d="M18.9948 6.04373C18.9507 5.05624 18.8184 4.36249 18.6301 3.76999C18.4351 3.14249 18.1395 2.57624 17.7551 2.19624C17.3751 1.81187 16.8034 1.51624 16.1826 1.32561C15.5896 1.13749 14.9014 1.00562 13.9139 0.961244C12.9176 0.912494 12.5813 0.899994 9.9976 0.899994C7.41387 0.899994 7.0776 0.911874 6.08137 0.960624C5.09387 1.005 4.40012 1.13751 3.80762 1.32499C3.18012 1.51999 2.61387 1.81561 2.23387 2.19999C1.8495 2.57999 1.55387 3.15171 1.36325 3.77255C1.17512 4.36568 1.04325 5.0538 0.99887 6.0413C0.950124 7.03755 0.9375 7.37382 0.9375 9.95755C0.9375 12.5413 0.9495 12.8776 0.99825 13.8738C1.04262 14.8613 1.17513 15.5551 1.36325 16.1476C1.55825 16.7751 1.85388 17.3413 2.23387 17.7213C2.61387 18.1063 3.18575 18.4013 3.80637 18.592C4.40012 18.7801 5.08825 18.912 6.07637 18.9563C7.07262 19.0007 7.40888 19.0126 9.99262 19.0126C12.577 19.0126 12.9126 19.0007 13.9089 18.9563C14.8964 18.912 15.5901 18.7795 16.1826 18.592C17.4376 18.1907 18.4264 17.202 18.8276 15.947C19.0157 15.3538 19.1482 14.6663 19.1926 13.6782C19.237 12.6819 19.2489 12.3457 19.2489 9.76189C19.2476 7.17755 19.2351 6.8413 19.1907 5.84499L19.1913 6.04373H18.9948ZM17.567 13.7876C17.5264 14.6982 17.4001 15.1976 17.2945 15.5332C17.0357 16.3363 16.3982 16.9738 15.5951 17.2326C15.2595 17.3382 14.7595 17.4645 13.8495 17.5045C12.8657 17.5489 12.5545 17.5607 10.002 17.5607C7.45012 17.5607 7.13575 17.5489 6.15512 17.5045C5.24387 17.4639 4.74387 17.3376 4.40887 17.232C4.01012 17.107 3.64512 16.8863 3.35637 16.592C3.062 16.3032 2.84137 15.9382 2.71637 15.5395C2.61075 15.2039 2.4845 14.7039 2.44512 13.7939C2.40137 12.8101 2.38887 12.4982 2.38887 9.9463C2.38887 7.3938 2.40137 7.08009 2.44512 6.09939C2.48575 5.18814 2.61137 4.68814 2.71637 4.35314C2.84137 3.95439 3.062 3.58939 3.35762 3.30002C3.64637 3.00627 4.01137 2.78502 4.41012 2.66064C4.74575 2.55502 5.24575 2.42877 6.15637 2.38877C7.14013 2.34502 7.45263 2.33252 10.0032 2.33252C12.5564 2.33252 12.8695 2.34502 13.8507 2.38939C14.762 2.43002 15.262 2.55627 15.597 2.66127C15.9957 2.78627 16.3607 3.0069 16.6495 3.30127C16.9439 3.59002 17.1645 3.95502 17.2895 4.35377C17.3951 4.6894 17.5214 5.1894 17.5614 6.0994C17.6051 7.08315 17.6176 7.3944 17.6176 9.94755C17.6176 12.5001 17.6051 12.8113 17.567 13.7876ZM14.887 5.16009C14.3076 5.16009 13.837 4.69009 13.837 4.11002C13.837 3.53002 14.3076 3.0594 14.887 3.0594C15.467 3.0594 15.937 3.53002 15.937 4.11002C15.937 4.69065 15.467 5.16065 14.887 5.16009ZM9.9976 5.26253C7.30325 5.26253 5.112 7.45377 5.112 10.1482C5.112 12.8426 7.30325 15.0338 9.9976 15.0338C12.692 15.0338 14.8832 12.8426 14.8832 10.1482C14.8832 7.45377 12.692 5.26253 9.9976 5.26253ZM9.9976 13.4101C8.19825 13.4101 6.737 11.9489 6.737 10.1495C6.737 8.35002 8.19825 6.88877 9.9976 6.88877C11.797 6.88877 13.2582 8.35002 13.2582 10.1495C13.2582 11.9489 11.797 13.4101 9.9976 13.4101Z" fill="var(--fill-0, #FE9213)"/>
</g>
<defs>
<clipPath id="clip0_733_12">
<rect width="20" height="20" fill="white"/>
</clipPath>
</defs>
</svg>
