<svg preserveAspectRatio="none" width="100%" height="100%" overflow="visible" style="display: block;" viewBox="0 0 48 48" fill="none" xmlns="http://www.w3.org/2000/svg">
<g id="SVG">
<path id="h77" d="M45 46.5H4.5C3.67157 46.5 2.96447 46.2071 2.37868 45.6213C1.79289 45.0355 1.5 44.3284 1.5 43.5V3C1.5 2.58579 1.64645 2.23223 1.93934 1.93934C2.23223 1.64645 2.58579 1.5 3 1.5C3.41421 1.5 3.76777 1.64645 4.06066 1.93934C4.35355 2.23223 4.5 2.58579 4.5 3V43.5H45C45.4142 43.5 45.7678 43.6464 46.0607 43.9393C46.3535 44.2322 46.5 44.5858 46.5 45C46.5 45.4142 46.3535 45.7678 46.0607 46.0607C45.7678 46.3535 45.4142 46.5 45 46.5Z" fill="var(--fill-0, #025CCD)"/>
<path id="h78" d="M14.625 40.5H10.875C9.94302 40.5 9.14752 40.1705 8.48851 39.5115C7.8295 38.8525 7.5 38.057 7.5 37.125V22.875C7.5 21.943 7.8295 21.1475 8.48851 20.4885C9.14752 19.8295 9.94302 19.5 10.875 19.5H14.625C15.557 19.5 16.3525 19.8295 17.0115 20.4885C17.6705 21.1475 18 21.943 18 22.875V37.125C18 38.057 17.6705 38.8525 17.0115 39.5115C16.3525 40.1705 15.557 40.5 14.625 40.5ZM28.125 40.5H24.375C23.443 40.5 22.6475 40.1705 21.9885 39.5115C21.3295 38.8525 21 38.057 21 37.125V18.375C21 17.443 21.3295 16.6475 21.9885 15.9885C22.6475 15.3295 23.443 15 24.375 15H28.125C29.057 15 29.8525 15.3295 30.5115 15.9885C31.1705 16.6475 31.5 17.443 31.5 18.375V37.125C31.5 38.057 31.1705 38.8525 30.5115 39.5115C29.8525 40.1705 29.057 40.5 28.125 40.5ZM41.5913 40.5H37.8413C36.9093 40.5 36.1138 40.1705 35.4548 39.5115C34.7958 38.8525 34.4662 38.057 34.4663 37.125V12.375C34.4663 11.443 34.7958 10.6475 35.4548 9.98851C36.1138 9.3295 36.9093 9 37.8413 9H41.5913C42.5232 9 43.3187 9.3295 43.9777 9.98851C44.6367 10.6475 44.9663 11.443 44.9663 12.375V37.125C44.9663 38.057 44.6367 38.8525 43.9777 39.5115C43.3187 40.1705 42.5232 40.5 41.5913 40.5Z" fill="var(--fill-0, #025CCD)"/>
</g>
</svg>
