<svg preserveAspectRatio="none" width="100%" height="100%" overflow="visible" style="display: block;" viewBox="0 0 24 24" fill="none" xmlns="http://www.w3.org/2000/svg">
<g id="SVG">
<path id="h451" d="M12.2948 9.01453C11.4319 8.92931 10.6744 9.17251 10.0224 9.74413C9.37031 10.3158 9.03006 11.0349 9.00161 11.9016C8.97316 12.7683 9.26551 13.5082 9.87867 14.1213C10.4918 14.7345 11.2317 15.0268 12.0984 14.9984C12.9651 14.9699 13.6842 14.6297 14.2559 13.9776C14.8275 13.3256 15.0707 12.5681 14.9855 11.7052C14.914 10.9938 14.6256 10.3854 14.1201 9.87995C13.6146 9.37445 13.0062 9.08597 12.2948 9.01453ZM19.5183 12C19.5173 12.163 19.5109 12.3259 19.4989 12.4885C19.4869 12.6511 19.4695 12.8131 19.4466 12.9745L21.5658 14.6367C21.6611 14.7157 21.7196 14.8161 21.7413 14.9379C21.763 15.0598 21.7428 15.1742 21.6806 15.2812L19.6758 18.75C19.6129 18.856 19.5234 18.9293 19.407 18.9699C19.2907 19.0105 19.175 19.0089 19.0598 18.9652L16.9552 18.1177C16.8373 18.0707 16.7153 18.0545 16.5893 18.0691C16.4632 18.0836 16.3482 18.1271 16.2441 18.1997C16.0835 18.3103 15.9189 18.4146 15.7504 18.5127C15.5818 18.6109 15.4098 18.7024 15.2344 18.7875C15.1223 18.842 15.0297 18.9196 14.9565 19.0203C14.8833 19.1211 14.8381 19.2332 14.8209 19.3566L14.5055 21.6014C14.4841 21.7237 14.4263 21.8252 14.3322 21.906C14.238 21.9869 14.1289 22.0286 14.0048 22.0313H9.99516C9.87327 22.0291 9.76543 21.9892 9.67162 21.9113C9.57781 21.8335 9.51862 21.7349 9.49406 21.6155L9.17906 19.3739C9.1611 19.2492 9.11475 19.136 9.04 19.0346C8.96526 18.9331 8.87099 18.8553 8.75719 18.8011C8.58192 18.7165 8.41033 18.625 8.2424 18.5267C8.07448 18.4283 7.91076 18.3234 7.75125 18.2119C7.6475 18.1397 7.53283 18.0965 7.40724 18.0823C7.28165 18.0681 7.16023 18.0845 7.04297 18.1317L4.93875 18.9788C4.82365 19.0226 4.70795 19.0242 4.59164 18.9837C4.47534 18.9432 4.38573 18.8699 4.32281 18.7641L2.31797 15.2953C2.25573 15.1883 2.23547 15.0739 2.25718 14.952C2.2789 14.8301 2.33744 14.7297 2.43281 14.6508L4.22391 13.2445C4.32359 13.1654 4.39837 13.0673 4.44827 12.9502C4.49816 12.8331 4.51712 12.7112 4.50516 12.5845C4.48828 12.3891 4.47797 12.1941 4.47797 11.9986C4.47797 11.8031 4.48781 11.6109 4.50516 11.4197C4.51581 11.2938 4.49592 11.1729 4.44547 11.057C4.39501 10.9412 4.32007 10.8442 4.22062 10.7663L2.43047 9.36C2.3367 9.28071 2.27933 9.18057 2.25837 9.05957C2.23741 8.93857 2.25774 8.82496 2.31938 8.71875L4.32422 5.25C4.38706 5.14403 4.47664 5.07073 4.59295 5.0301C4.70926 4.98947 4.825 4.99105 4.94016 5.03484L7.04484 5.88234C7.16272 5.92928 7.28469 5.94548 7.41073 5.93094C7.53677 5.9164 7.65184 5.87285 7.75594 5.80031C7.91654 5.68972 8.08111 5.58536 8.24963 5.48725C8.41815 5.38914 8.59015 5.29756 8.76563 5.2125C8.87766 5.15805 8.97028 5.08044 9.0435 4.97966C9.11671 4.87889 9.1619 4.76681 9.17906 4.64344L9.49453 2.39859C9.5159 2.27635 9.57366 2.1748 9.66781 2.09396C9.76197 2.01311 9.87108 1.97138 9.99516 1.96875H14.0048C14.1267 1.97086 14.2346 2.01083 14.3284 2.08867C14.4222 2.16651 14.4814 2.26513 14.5059 2.38453L14.8209 4.62609C14.8389 4.75084 14.8853 4.86396 14.96 4.96544C15.0347 5.06692 15.129 5.14474 15.2428 5.19891C15.4181 5.28351 15.5897 5.37499 15.7576 5.47335C15.9255 5.57171 16.0892 5.67663 16.2487 5.78813C16.3525 5.86031 16.4672 5.90351 16.5928 5.91772C16.7183 5.93194 16.8398 5.91546 16.957 5.86828L19.0612 5.02125C19.1763 4.97742 19.2921 4.97577 19.4084 5.01631C19.5247 5.05685 19.6143 5.13006 19.6772 5.23594L21.682 8.70469C21.7443 8.8117 21.7645 8.92614 21.7428 9.04802C21.7211 9.16989 21.6626 9.27029 21.5672 9.34922L19.7761 10.7555C19.676 10.8343 19.6008 10.9323 19.5504 11.0494C19.5001 11.1665 19.4808 11.2886 19.4925 11.4155C19.508 11.6095 19.5183 11.8045 19.5183 12Z" stroke="var(--stroke-0, #FA8C16)" stroke-width="1.5" stroke-linejoin="round"/>
</g>
</svg>
