<svg preserveAspectRatio="none" width="100%" height="100%" overflow="visible" style="display: block;" viewBox="0 0 16 16" fill="none" xmlns="http://www.w3.org/2000/svg">
<g id="SVG">
<path id="h89" d="M14.2857 12C14.2857 10.0071 13.1179 8.28571 11.4286 7.48393V4.52321C11.4286 4.25357 11.3339 3.99286 11.1589 3.7875L8.4375 0.560714C8.32321 0.425 8.16071 0.357143 8 0.357143C7.83929 0.357143 7.67679 0.425 7.5625 0.560714L4.84107 3.7875C4.75417 3.89039 4.68754 4.00506 4.64119 4.13151C4.59485 4.25797 4.57159 4.38854 4.57143 4.52321V7.48393C2.88214 8.28571 1.71429 10.0071 1.71429 12H4.50893C4.46786 12.1286 4.44643 12.2679 4.44643 12.425C4.44643 12.8196 4.58214 13.2054 4.82857 13.5107C4.92914 13.6356 5.0448 13.7444 5.17554 13.8373C5.30627 13.9301 5.44716 14.0034 5.59821 14.0571C6.01071 15.0214 6.94821 15.6429 8 15.6429C8.51964 15.6429 9.02321 15.4893 9.45357 15.2C9.875 14.9179 10.2018 14.5232 10.4 14.0571C10.551 14.0037 10.6919 13.9307 10.8226 13.8382C10.9533 13.7457 11.069 13.6371 11.1696 13.5125C11.293 13.3584 11.3875 13.1883 11.453 13.0021C11.5185 12.8159 11.5515 12.6242 11.5518 12.4268C11.5518 12.2768 11.5321 12.1339 11.4964 12.0018H14.2857V12ZM12.4696 9.95357C12.6375 10.2143 12.7732 10.4946 12.8714 10.7857H11.3571V8.83393C11.5799 8.9793 11.785 9.14633 11.9725 9.33501C12.16 9.5237 12.3257 9.72989 12.4696 9.95357ZM5.78571 7.48393V4.55L8 1.925L10.2143 4.55V10.7857H5.78571V7.48393ZM3.12857 10.7857C3.22679 10.4946 3.3625 10.2143 3.53036 9.95357C3.82143 9.50357 4.2 9.12322 4.64286 8.83393V10.7857H3.12857ZM10.0732 12.8607C9.98036 12.9143 9.87321 12.9357 9.76786 12.9214L9.41964 12.8786L9.36964 13.225C9.27321 13.9018 8.68393 14.4125 8 14.4125C7.31607 14.4125 6.72679 13.9018 6.63036 13.225L6.58036 12.8768L6.23214 12.9214C6.17921 12.9277 6.12664 12.9255 6.07441 12.9149C6.02219 12.9042 5.97298 12.8855 5.92679 12.8589C5.77143 12.7696 5.675 12.6036 5.675 12.4232C5.675 12.2339 5.78036 12.0768 5.93571 11.9982H10.0661C10.2232 12.0786 10.3268 12.2357 10.3268 12.4232C10.325 12.6054 10.2286 12.7732 10.0732 12.8607ZM7.14286 6C7.14286 6.23669 7.22654 6.43872 7.39391 6.60609C7.56128 6.77346 7.76331 6.85714 8 6.85714C8.23669 6.85714 8.43872 6.77346 8.60609 6.60609C8.77346 6.43872 8.85714 6.23669 8.85714 6C8.85714 5.76331 8.77346 5.56128 8.60609 5.39391C8.43872 5.22654 8.23669 5.14286 8 5.14286C7.76331 5.14286 7.56128 5.22654 7.39391 5.39391C7.22654 5.56128 7.14286 5.76331 7.14286 6Z" fill="var(--fill-0, white)"/>
</g>
</svg>
