<svg preserveAspectRatio="none" width="100%" height="100%" overflow="visible" style="display: block;" viewBox="0 0 22 22" fill="none" xmlns="http://www.w3.org/2000/svg">
<g id="SVG" clip-path="url(#clip0_671_492)">
<path id="h47" d="M7.56508 19.5229C7.56551 19.7931 7.64543 20.0578 7.79539 20.283L8.52973 21.3868C8.65712 21.5785 8.82222 21.7286 9.02503 21.8374C9.22784 21.9461 9.4443 22.0004 9.67441 22.0004H12.326C12.5561 22.0004 12.7726 21.9461 12.9754 21.8374C13.1782 21.7286 13.3433 21.5785 13.4707 21.3868L14.205 20.283C14.28 20.1704 14.3371 20.0494 14.3763 19.9199C14.4155 19.7905 14.4352 19.6581 14.4354 19.5229L14.4371 17.875H7.56293L7.56508 19.5229ZM3.4375 7.5625C3.4375 9.46902 4.14434 11.2084 5.30922 12.5374C6.01906 13.3474 7.12937 15.0395 7.55262 16.4669C7.55434 16.4781 7.55563 16.4893 7.55734 16.5004H14.4427C14.4444 16.4893 14.4457 16.4785 14.4474 16.4669C14.8706 15.0395 15.9809 13.3474 16.6908 12.5374C17.8557 11.2084 18.5625 9.46902 18.5625 7.5625C18.5625 3.37777 15.1641 -0.0128906 10.9764 0C6.59313 0.0133203 3.4375 3.56512 3.4375 7.5625ZM11 4.125C9.10465 4.125 7.5625 5.66715 7.5625 7.5625C7.5625 7.94234 7.25484 8.25 6.875 8.25C6.49516 8.25 6.1875 7.94234 6.1875 7.5625C6.1875 4.90875 8.34625 2.75 11 2.75C11.3798 2.75 11.6875 3.05766 11.6875 3.4375C11.6875 3.81734 11.3798 4.125 11 4.125Z" fill="var(--fill-0, #FA8C16)"/>
</g>
<defs>
<clipPath id="clip0_671_492">
<rect width="22" height="22" fill="white"/>
</clipPath>
</defs>
</svg>
