<svg preserveAspectRatio="none" width="100%" height="100%" overflow="visible" style="display: block;" viewBox="0 0 60 60" fill="none" xmlns="http://www.w3.org/2000/svg">
<g id="SVG" clip-path="url(#clip0_611_55)">
<path id="h146" d="M30 0C13.433 0 0 13.433 0 30C0 46.567 13.433 60 30 60C46.567 60 60 46.567 60 30C60 13.433 46.567 0 30 0ZM30 54.9107C16.2455 54.9107 5.08929 43.7545 5.08929 30C5.08929 16.2455 16.2455 5.08929 30 5.08929C43.7545 5.08929 54.9107 16.2455 54.9107 30C54.9107 43.7545 43.7545 54.9107 30 54.9107ZM33.1942 28.4464L31.4933 28.0513V19.058C34.0379 19.4063 35.6116 21 35.8795 22.9554C35.9129 23.2232 36.1406 23.4174 36.4085 23.4174H39.4152C39.7299 23.4174 39.9777 23.1429 39.9509 22.8281C39.5424 18.6563 36.1071 15.9777 31.5201 15.5156V13.3259C31.5201 13.0312 31.279 12.7902 30.9844 12.7902H29.1027C28.808 12.7902 28.567 13.0312 28.567 13.3259V15.5357C23.8259 15.9978 20.1161 18.6161 20.1161 23.5045C20.1161 28.0312 23.4509 30.2143 26.9531 31.0513L28.6071 31.4732V41.029C25.6473 40.6339 23.9866 39.0536 23.6451 36.9241C23.6049 36.6696 23.3772 36.4821 23.1161 36.4821H20.0223C19.7076 36.4821 19.4598 36.75 19.4866 37.0647C19.7879 40.7478 22.5804 44.1362 28.5402 44.5714V46.6741C28.5402 46.9688 28.7813 47.2098 29.0759 47.2098H30.9777C31.2723 47.2098 31.5134 46.9688 31.5134 46.6674L31.5 44.5446C36.7433 44.0826 40.4933 41.2768 40.4933 36.2411C40.4866 31.5937 37.5335 29.5179 33.1942 28.4464ZM28.6004 27.3616C28.2254 27.2545 27.9107 27.154 27.596 27.0268C25.3326 26.2098 24.2812 24.8906 24.2812 23.1897C24.2812 20.7589 26.1228 19.3728 28.6004 19.058V27.3616ZM31.4933 41.0491V32.096C31.7009 32.1562 31.8884 32.2031 32.0826 32.2433C35.25 33.2076 36.3147 34.5469 36.3147 36.6027C36.3147 39.221 34.346 40.7946 31.4933 41.0491Z" fill="var(--fill-0, #FE9213)"/>
</g>
<defs>
<clipPath id="clip0_611_55">
<rect width="60" height="60" fill="white"/>
</clipPath>
</defs>
</svg>
