<svg preserveAspectRatio="none" width="100%" height="100%" overflow="visible" style="display: block;" viewBox="0 0 144 64" fill="none" xmlns="http://www.w3.org/2000/svg">
<g id="Group 1 (1)" clip-path="url(#clip0_733_30)">
<ellipse id="Ellipse 1" cx="20.9293" cy="25.9095" rx="20.9293" ry="25.9095" transform="matrix(0.814031 -0.580822 0.579685 0.814841 -8.92188 21.7758)" fill="var(--fill-0, #025CCD)"/>
<ellipse id="Ellipse 1_2" cx="17.4066" cy="21.4146" rx="17.4066" ry="21.4146" transform="matrix(0.849376 -0.527788 0.526663 0.850074 0.226562 19.982)" fill="var(--fill-0, black)"/>
<ellipse id="Ellipse 1_3" cx="11.4341" cy="14.5078" rx="11.4341" ry="14.5078" transform="matrix(0.782775 -0.622305 0.621179 0.783669 8.15625 23.9138)" fill="var(--fill-0, #025CCD)"/>
<ellipse id="Ellipse 1_4" cx="9.01375" cy="11.9047" rx="9.01375" ry="11.9047" transform="matrix(0.782775 -0.622305 0.621179 0.783669 13.6484 22.9861)" fill="var(--fill-0, black)"/>
<path id="Vector 1" d="M51.9249 1.33448C52.0257 1.19159 51.8509 1.01676 51.7077 1.11733L33.1625 14.1471C33.0654 14.2153 33.0771 14.3625 33.1837 14.4146L38.3545 16.9401C38.4519 16.9878 38.4722 17.1176 38.394 17.1926L24.8308 30.2017C24.6973 30.3296 24.8587 30.5422 25.0182 30.4483L50.0642 15.6973C50.1694 15.6353 50.1656 15.4818 50.0574 15.4251C49.033 14.8893 45.1528 12.8595 44.321 12.4243C44.2374 12.3807 44.2115 12.2736 44.2659 12.1966L51.9249 1.33448Z" fill="var(--fill-0, #FE9213)"/>
<path id="Vector 1_2" d="M33.2969 14.3386C33.3083 14.3305 33.317 14.3198 33.3231 14.3064C33.3286 14.2942 33.3308 14.2816 33.3298 14.2687C33.3287 14.2557 33.3245 14.2437 33.3172 14.2325C33.3091 14.2202 33.2988 14.211 33.2863 14.2049L38.457 16.7305C38.5161 16.7594 38.5646 16.8003 38.6027 16.8533C38.6387 16.9034 38.6614 16.959 38.671 17.0202C38.6807 17.0814 38.676 17.1414 38.657 17.2002C38.637 17.2622 38.6033 17.316 38.5559 17.3614L24.9927 30.3706C25.0068 30.3572 25.0142 30.3387 25.015 30.3152C25.0156 30.2965 25.0108 30.2806 25.0008 30.2672C24.9907 30.2539 24.9766 30.2452 24.9584 30.2407C24.9357 30.2353 24.9159 30.2373 24.899 30.2472L49.945 15.4963C49.9327 15.5036 49.9229 15.5139 49.9158 15.5273C49.9093 15.5394 49.9062 15.5521 49.9066 15.5654C49.9069 15.5787 49.9106 15.5912 49.9176 15.603C49.9254 15.616 49.9358 15.6258 49.9485 15.6324L47.1258 14.1558L44.2121 12.6317C44.1612 12.605 44.1182 12.5689 44.0834 12.5235C44.05 12.48 44.027 12.4316 44.0141 12.3782C44.001 12.3248 43.9994 12.2712 44.0092 12.2173C44.0194 12.1609 44.0411 12.1093 44.0741 12.0623L51.7333 1.2002C51.7225 1.21562 51.7185 1.23425 51.7212 1.25608C51.7235 1.27393 51.7304 1.28862 51.742 1.30014C51.7535 1.31166 51.7683 1.31857 51.7861 1.32086C51.8081 1.32366 51.8267 1.31963 51.8421 1.30877L33.2969 14.3386ZM33.0275 13.9562L51.5727 0.926455C51.6563 0.867675 51.7473 0.844587 51.8458 0.857189C51.9335 0.868438 52.0093 0.905923 52.0732 0.969643C52.1368 1.03336 52.1743 1.10906 52.1856 1.19674C52.1983 1.29495 52.1751 1.38581 52.1161 1.46933L44.4569 12.3315C44.4705 12.3122 44.4745 12.2911 44.4689 12.2683C44.4634 12.2454 44.4502 12.2285 44.4293 12.2176L47.3429 13.7417L50.1657 15.2184C50.2308 15.2525 50.2821 15.3008 50.3195 15.3633C50.3545 15.4217 50.3728 15.4851 50.3746 15.5536C50.3764 15.6221 50.3612 15.6864 50.3291 15.7465C50.295 15.8108 50.2462 15.8616 50.1827 15.899L25.1368 30.65C25.0442 30.7045 24.9474 30.7194 24.8467 30.6946C24.7575 30.6728 24.6846 30.6245 24.6279 30.55C24.5711 30.4753 24.5442 30.392 24.5471 30.3003C24.5504 30.1969 24.5908 30.1077 24.6684 30.0332L38.2316 17.0242C38.212 17.043 38.2044 17.0658 38.2085 17.0925C38.2127 17.1192 38.227 17.1385 38.2513 17.1505L33.0806 14.6248C33.0163 14.5933 32.9646 14.5481 32.9257 14.4889C32.8893 14.4333 32.8684 14.3722 32.8631 14.3056C32.8578 14.239 32.8688 14.1754 32.896 14.1148C32.9251 14.0503 32.9689 13.9974 33.0275 13.9562Z" fill="var(--fill-0, black)"/>
<path id="Vector 1_3" d="M64.4232 6.23453C66.5668 6.23453 68.3777 6.96241 69.8559 8.41818C71.334 9.86887 72.0731 11.6341 72.0731 13.7137C72.0731 15.7883 71.334 17.5535 69.8559 19.0093C68.3777 20.4651 66.5668 21.193 64.4232 21.193H61.1469V28.0482H56.1562V6.23453H64.4232ZM64.4232 16.5137C65.1953 16.5137 65.8302 16.2449 66.328 15.7072C66.8258 15.1644 67.0747 14.5 67.0747 13.7137C67.0747 12.9225 66.8258 12.258 66.328 11.7203C65.8302 11.1776 65.1953 10.9062 64.4232 10.9062H61.1469V16.5137H64.4232Z" fill="var(--fill-0, #025CCD)"/>
<path id="Vector 1_4" d="M87.4855 26.1005C85.8854 27.6882 83.9297 28.482 81.6185 28.482C79.3124 28.482 77.3568 27.6882 75.7517 26.1005C74.1516 24.5129 73.3516 22.5651 73.3516 20.2572C73.3516 17.9492 74.1516 16.0014 75.7517 14.4138C77.3568 12.8261 79.3124 12.0323 81.6185 12.0323C83.9297 12.0323 85.8854 12.8261 87.4855 14.4138C89.0907 16.0014 89.8932 17.9492 89.8932 20.2572C89.8932 22.5651 89.0907 24.5129 87.4855 26.1005ZM79.0584 22.9049C79.7493 23.5897 80.6027 23.9321 81.6185 23.9321C82.6396 23.9321 83.493 23.5897 84.1787 22.9049C84.8644 22.2202 85.2072 21.3376 85.2072 20.2572C85.2072 19.1767 84.8644 18.2941 84.1787 17.6094C83.493 16.9246 82.6396 16.5822 81.6185 16.5822C80.6027 16.5822 79.7493 16.9246 79.0584 17.6094C78.3727 18.2941 78.0298 19.1767 78.0298 20.2572C78.0298 21.3376 78.3727 22.2202 79.0584 22.9049Z" fill="var(--fill-0, #025CCD)"/>
<path id="Vector 1_5" d="M109.853 12.4658H114.844L109.853 28.0481H105.488L102.988 19.7244L100.489 28.0481H96.1233L91.125 12.4658H96.1233L98.3709 20.82L100.802 12.4658H105.175L107.606 20.82L109.853 12.4658Z" fill="var(--fill-0, #025CCD)"/>
<path id="Vector 1_6" d="M121.109 22.1289C121.652 23.5796 122.902 24.3049 124.857 24.3049C126.127 24.3049 127.125 23.9118 127.852 23.1256L131.593 25.2712C130.054 27.4117 127.786 28.482 124.789 28.482C122.168 28.482 120.072 27.7034 118.503 26.1462C116.933 24.589 116.148 22.6259 116.148 20.2572C116.148 17.9086 116.923 15.9507 118.472 14.3833C120.022 12.816 122.013 12.0323 124.446 12.0323C126.717 12.0323 128.606 12.816 130.115 14.3833C131.623 15.9507 132.378 17.9086 132.378 20.2572C132.378 20.9216 132.314 21.5455 132.187 22.1289H121.109ZM121.017 18.6365H127.722C127.265 16.9931 126.163 16.1713 124.415 16.1713C122.607 16.1713 121.474 16.9931 121.017 18.6365Z" fill="var(--fill-0, #025CCD)"/>
<path id="Vector 1_7" d="M138.241 15.2429C138.53 14.2436 139.117 13.4802 140.001 12.9527C140.885 12.4201 141.857 12.1538 142.919 12.1538V17.4494C141.776 17.2617 140.709 17.4544 139.719 18.0276C138.733 18.6008 138.241 19.5925 138.241 21.0026V28.0481H133.555V12.4658H138.241V15.2429Z" fill="var(--fill-0, #025CCD)"/>
<path id="Vector 1_8" d="M77.6313 43.3225V45.1866C77.6313 48.4481 76.6178 51.0502 74.591 52.993C72.5643 54.9357 69.989 55.9071 66.8651 55.9071C63.4769 55.9071 60.6629 54.8165 58.4228 52.6353C56.1878 50.4542 55.0703 47.776 55.0703 44.6007C55.0703 41.4203 56.1777 38.7294 58.3924 36.528C60.607 34.3215 63.317 33.2183 66.5221 33.2183C68.5641 33.2183 70.4309 33.6773 72.1224 34.5954C73.8191 35.5085 75.1347 36.7132 76.0693 38.2095L71.8253 40.6367C71.3478 39.891 70.6341 39.2798 69.6842 38.803C68.7394 38.3211 67.6753 38.0802 66.4917 38.0802C64.6377 38.0802 63.1011 38.6939 61.882 39.9214C60.668 41.149 60.0609 42.7188 60.0609 44.6311C60.0609 46.5181 60.6857 48.0601 61.9354 49.2571C63.1849 50.4492 64.8485 51.0452 66.926 51.0452C69.8213 51.0452 71.6855 49.9242 72.5186 47.6822H66.6822V43.3225H77.6313Z" fill="var(--fill-0, #025CCD)"/>
<path id="Vector 1_9" d="M98.5564 33.6593L91.2266 47.0885V55.473H86.2358V47.0885L78.8984 33.6593H84.5749L88.7274 42.0744L92.8801 33.6593H98.5564Z" fill="var(--fill-0, #025CCD)"/>
<path id="Vector 1_10" d="M121.595 33.6593V55.473H116.604V42.7896L110.95 52.0416H110.387L104.741 42.7896V55.473H99.75V33.6593H104.741L110.668 43.3526L116.604 33.6593H121.595Z" fill="var(--fill-0, #025CCD)"/>
<path id="Vector 1_11" d="M138.538 55.473L137.449 52.0416H129.334L128.244 55.473H122.781L130.21 33.6593H136.572L144.001 55.473H138.538ZM130.835 47.37H135.955L133.395 39.3581L130.835 47.37Z" fill="var(--fill-0, #025CCD)"/>
</g>
<defs>
<clipPath id="clip0_733_30">
<rect width="144" height="64" fill="white"/>
</clipPath>
</defs>
</svg>
