<svg preserveAspectRatio="none" width="100%" height="100%" overflow="visible" style="display: block;" viewBox="0 0 48 48" fill="none" xmlns="http://www.w3.org/2000/svg">
<g id="SVG">
<path id="h69" d="M30.5705 21.7406L26.1174 28.8188C26.0263 28.945 25.9257 29.0632 25.8156 29.1733C25.7055 29.2833 25.5874 29.3839 25.4611 29.475C24.8268 29.9175 24.1286 30.073 23.3665 29.9417C22.6044 29.8103 21.9985 29.4299 21.549 28.8006C21.0995 28.1713 20.9362 27.4749 21.0591 26.7113C21.182 25.9478 21.5556 25.3378 22.1799 24.8813L29.258 20.4281C29.4228 20.3133 29.6056 20.2559 29.8064 20.2559C30.0073 20.2559 30.1901 20.3133 30.3549 20.4281C30.5652 20.58 30.6914 20.7839 30.7334 21.0399C30.7755 21.2959 30.7212 21.5295 30.5705 21.7406Z" fill="var(--fill-0, #FA8C16)"/>
<path id="h70" d="M24 6C12.4031 6 3 15.3937 3 26.9906C2.99644 29.556 3.44939 32.0381 4.35883 34.4369C5.26827 36.8357 6.57471 38.9943 8.27812 40.9125C8.38125 41.025 8.475 41.1375 8.57812 41.2406C9.04734 41.7486 9.62772 42.0017 10.3192 41.9998C11.0108 41.9979 11.5898 41.7418 12.0562 41.2312C15.2711 37.7376 19.2523 35.9908 24 35.9908C28.7477 35.9908 32.7289 37.7376 35.9437 41.2312C36.4102 41.7418 36.9892 41.9979 37.6808 41.9998C38.3723 42.0017 38.9527 41.7486 39.4219 41.2406L39.7219 40.9125C41.4253 38.9943 42.7317 36.8357 43.6412 34.4369C44.5506 32.0381 45.0036 29.556 45 26.9906C45 15.3937 35.5969 6 24 6Z" stroke="var(--stroke-0, #FA8C16)" stroke-width="3" stroke-linejoin="round"/>
<path id="h71" d="M24 12V15M39 27H36M12 27H9M15.5147 18.5147L13.3931 16.3931M32.4853 18.5147L34.6069 16.3931" stroke="var(--stroke-0, #FA8C16)" stroke-width="3" stroke-linecap="round"/>
</g>
</svg>
