<svg preserveAspectRatio="none" width="100%" height="100%" overflow="visible" style="display: block;" viewBox="0 0 22 22" fill="none" xmlns="http://www.w3.org/2000/svg">
<g id="SVG">
<path id="h54" d="M17.1875 2.75H13.75C13.75 1.2332 12.5168 0 11 0C9.4832 0 8.25 1.2332 8.25 2.75H4.8125C3.67383 2.75 2.75 3.67383 2.75 4.8125V19.9375C2.75 21.0762 3.67383 22 4.8125 22H17.1875C18.3262 22 19.25 21.0762 19.25 19.9375V4.8125C19.25 3.67383 18.3262 2.75 17.1875 2.75ZM11 1.71875C11.5715 1.71875 12.0312 2.17852 12.0312 2.75C12.0312 3.32148 11.5715 3.78125 11 3.78125C10.4285 3.78125 9.96875 3.32148 9.96875 2.75C9.96875 2.17852 10.4285 1.71875 11 1.71875ZM16.2078 11.6789L10.0633 17.7719C9.86133 17.9738 9.53477 17.9695 9.33281 17.7676L5.78359 14.1883C5.58164 13.9863 5.58594 13.6598 5.78789 13.4578L7.0082 12.2461C7.21016 12.0441 7.53672 12.0484 7.73867 12.2504L9.71523 14.2441L14.2699 9.72383C14.4719 9.52188 14.7984 9.52617 15.0004 9.72813L16.2121 10.9484C16.4141 11.1547 16.4098 11.477 16.2078 11.6789Z" fill="var(--fill-0, #FA8C16)"/>
</g>
</svg>
