<svg preserveAspectRatio="none" width="100%" height="100%" overflow="visible" style="display: block;" viewBox="0 0 14 14" fill="none" xmlns="http://www.w3.org/2000/svg">
<g id="SVG" clip-path="url(#clip0_611_51)">
<path id="h68" d="M9.92188 4.51562H9.18906C9.02969 4.51562 8.87812 4.59219 8.78437 4.72344L6.32812 8.12969L5.21562 6.58594C5.12187 6.45625 4.97187 6.37813 4.81094 6.37813H4.07812C3.97656 6.37813 3.91719 6.49375 3.97656 6.57656L5.92344 9.27656C6.02254 9.41489 6.15718 9.48405 6.32734 9.48405C6.49751 9.48405 6.63214 9.41489 6.73125 9.27656L10.0219 4.71406C10.0828 4.63125 10.0234 4.51562 9.92188 4.51562Z" fill="var(--fill-0, #FE9213)"/>
<path id="h69" d="M7 0C3.13438 0 0 3.13438 0 7C0 10.8656 3.13438 14 7 14C10.8656 14 14 10.8656 14 7C14 3.13437 10.8656 0 7 0ZM7 12.8125C3.79063 12.8125 1.1875 10.2094 1.1875 7C1.1875 3.79062 3.79063 1.1875 7 1.1875C10.2094 1.1875 12.8125 3.79063 12.8125 7C12.8125 10.2094 10.2094 12.8125 7 12.8125Z" fill="var(--fill-0, #FE9213)"/>
</g>
<defs>
<clipPath id="clip0_611_51">
<rect width="14" height="14" fill="white"/>
</clipPath>
</defs>
</svg>
