<svg preserveAspectRatio="none" width="100%" height="100%" overflow="visible" style="display: block;" viewBox="0 0 16 16" fill="none" xmlns="http://www.w3.org/2000/svg">
<g id="SVG" clip-path="url(#clip0_611_42)">
<path id="h180" d="M8 0C3.58214 0 0 3.58214 0 8C0 12.4179 3.58214 16 8 16C12.4179 16 16 12.4179 16 8C16 3.58214 12.4179 0 8 0ZM8 14.6429C4.33214 14.6429 1.35714 11.6679 1.35714 8C1.35714 4.33214 4.33214 1.35714 8 1.35714C11.6679 1.35714 14.6429 4.33214 14.6429 8C14.6429 11.6679 11.6679 14.6429 8 14.6429ZM8.85179 7.58571L8.39821 7.48036V5.08214C9.07679 5.175 9.49643 5.6 9.56786 6.12143C9.57679 6.19286 9.6375 6.24464 9.70893 6.24464H10.5107C10.5946 6.24464 10.6607 6.17143 10.6536 6.0875C10.5446 4.975 9.62857 4.26072 8.40536 4.1375V3.55357C8.40536 3.475 8.34107 3.41071 8.2625 3.41071H7.76071C7.68214 3.41071 7.61786 3.475 7.61786 3.55357V4.14286C6.35357 4.26607 5.36429 4.96429 5.36429 6.26786C5.36429 7.475 6.25357 8.05714 7.1875 8.28036L7.62857 8.39286V10.9411C6.83929 10.8357 6.39643 10.4143 6.30536 9.84643C6.29464 9.77857 6.23393 9.72857 6.16429 9.72857H5.33929C5.25536 9.72857 5.18929 9.8 5.19643 9.88393C5.27679 10.8661 6.02143 11.7696 7.61071 11.8857V12.4464C7.61071 12.525 7.675 12.5893 7.75357 12.5893H8.26072C8.33929 12.5893 8.40357 12.525 8.40357 12.4446L8.4 11.8786C9.79821 11.7554 10.7982 11.0071 10.7982 9.66429C10.7964 8.425 10.0089 7.87143 8.85179 7.58571ZM7.62679 7.29643C7.52679 7.26786 7.44286 7.24107 7.35893 7.20714C6.75536 6.98929 6.475 6.6375 6.475 6.18393C6.475 5.53571 6.96607 5.16607 7.62679 5.08214V7.29643ZM8.39821 10.9464V8.55893C8.45357 8.575 8.50357 8.5875 8.55536 8.59821C9.4 8.85536 9.68393 9.2125 9.68393 9.76071C9.68393 10.4589 9.15893 10.8786 8.39821 10.9464Z" fill="var(--fill-0, white)"/>
</g>
<defs>
<clipPath id="clip0_611_42">
<rect width="16" height="16" fill="white"/>
</clipPath>
</defs>
</svg>
