<svg width="24" height="24" viewBox="0 0 24 24" fill="none" xmlns="http://www.w3.org/2000/svg">
<path d="M20.992 1.28571H3.00809C2.0572 1.28571 1.28577 2.05713 1.28577 3.00803V20.992C1.28577 21.9429 2.0572 22.7143 3.00809 22.7143H20.992C21.9429 22.7143 22.7143 21.9429 22.7143 20.992V3.00803C22.7143 2.05713 21.9429 1.28571 20.992 1.28571ZM20.992 21C8.99738 20.9973 3.00005 20.9946 3.00005 20.992C3.00273 8.99731 3.00541 2.99999 3.00809 2.99999C15.0027 3.00267 21.0001 3.00535 21.0001 3.00803C20.9974 15.0027 20.9947 21 20.992 21ZM4.46255 9.31874H7.64202V19.5455H4.46255V9.31874ZM6.05362 7.92053C7.0688 7.92053 7.89648 7.09553 7.89648 6.07767C7.89648 5.56878 7.71656 5.13441 7.35672 4.77457C6.99688 4.41473 6.56251 4.23481 6.05362 4.23481C5.54473 4.23481 5.11037 4.41473 4.75053 4.77457C4.39069 5.13441 4.21077 5.56878 4.21077 6.07767C4.20809 7.09553 5.03309 7.92053 6.05362 7.92053ZM12.8117 14.4857C12.8117 13.1518 13.0661 11.8607 14.7188 11.8607C16.3474 11.8607 16.3715 13.3848 16.3715 14.5714V19.5455H19.5483V13.9366C19.5483 11.183 18.9536 9.06428 15.7367 9.06428C14.1911 9.06428 13.1545 9.91338 12.7286 10.717H12.6858V9.31874H9.63487V19.5455H12.8117V14.4857Z" fill="#FE9213"/>
</svg>
