<svg preserveAspectRatio="none" width="100%" height="100%" overflow="visible" style="display: block;" viewBox="0 0 22 22" fill="none" xmlns="http://www.w3.org/2000/svg">
<g id="SVG">
<path id="h60" d="M21.3125 16.5H2.75V3.4375C2.75 3.05766 2.44234 2.75 2.0625 2.75H0.6875C0.307656 2.75 0 3.05766 0 3.4375V17.875C0 18.6343 0.615742 19.25 1.375 19.25H21.3125C21.6923 19.25 22 18.9423 22 18.5625V17.1875C22 16.8077 21.6923 16.5 21.3125 16.5ZM19.9375 4.125H14.8646C13.9459 4.125 13.4857 5.23574 14.1354 5.88543L15.5276 7.27762L12.375 10.4307L9.22238 7.27805C8.68527 6.74094 7.81473 6.74094 7.27805 7.27805L4.32652 10.2296C4.05797 10.4981 4.05797 10.9334 4.32652 11.202L5.29848 12.1739C5.56703 12.4425 6.0023 12.4425 6.27086 12.1739L8.25 10.1943L11.4026 13.347C11.9397 13.8841 12.8103 13.8841 13.347 13.347L17.472 9.22195L18.8641 10.6141C19.5138 11.2638 20.6246 10.8036 20.6246 9.88496V4.8125C20.625 4.43266 20.3173 4.125 19.9375 4.125Z" fill="var(--fill-0, #FA8C16)"/>
</g>
</svg>
