<svg preserveAspectRatio="none" width="100%" height="100%" overflow="visible" style="display: block;" viewBox="0 0 24 24" fill="none" xmlns="http://www.w3.org/2000/svg">
<g id="SVG">
<path id="h428" d="M14.7783 1.54687L4.5 14.25H10.5L9.02297 22.3702C9.01698 22.4041 9.02508 22.4342 9.04725 22.4606C9.06943 22.4869 9.09774 22.5001 9.13219 22.5C9.14964 22.5 9.16616 22.4961 9.18175 22.4882C9.19735 22.4804 9.21036 22.4695 9.22078 22.4555L19.5 9.75H13.5L14.9841 1.62891C14.9883 1.59458 14.9789 1.56449 14.956 1.53862C14.933 1.51275 14.9043 1.49988 14.8697 1.5C14.8516 1.50007 14.8345 1.50424 14.8184 1.5125C14.8023 1.52076 14.7889 1.53222 14.7783 1.54687Z" stroke="var(--stroke-0, #FA8C16)" stroke-width="1.5" stroke-linejoin="round"/>
</g>
</svg>
