<svg preserveAspectRatio="none" width="100%" height="100%" overflow="visible" style="display: block;" viewBox="0 0 16 13" fill="none" xmlns="http://www.w3.org/2000/svg">
<g id="Group 1">
<path id="Vector 1" d="M15.4286 0H0.571429C0.255357 0 0 0.255357 0 0.571429V12C0 12.3161 0.255357 12.5714 0.571429 12.5714H15.4286C15.7446 12.5714 16 12.3161 16 12V0.571429C16 0.255357 15.7446 0 15.4286 0ZM14.7143 1.97857V11.2857H1.28571V1.97857L0.792857 1.59464L1.49464 0.692857L2.25893 1.2875H13.7429L14.5071 0.692857L15.2089 1.59464L14.7143 1.97857ZM13.7429 1.2875L8 5.75L2.25893 1.2875L1.49464 0.692857L0.792857 1.59464L1.28571 1.97857L7.38393 6.71964C7.56437 6.85982 7.76883 6.92991 7.99732 6.92991C8.22581 6.92991 8.43028 6.85982 8.61071 6.71964L14.7143 1.97857L15.2089 1.59464L14.5071 0.692857L13.7429 1.2875Z" fill="var(--fill-0, #FE9213)"/>
</g>
</svg>
